<svg width="34" height="18" viewBox="0 0 34 18" fill="none" xmlns="http://www.w3.org/2000/svg">
<path d="M33.7753 8.45528L26.0482 0.72812C25.7706 0.403997 25.2828 0.366212 24.9587 0.643852C24.6346 0.921425 24.5968 1.40924 24.8744 1.73336C24.9003 1.76357 24.9285 1.7918 24.9587 1.81763L31.3645 8.23117H0.77269C0.34597 8.23117 0 8.57714 0 9.00392C0 9.43071 0.34597 9.77661 0.77269 9.77661H31.3645L24.9587 16.1824C24.6346 16.46 24.5968 16.9478 24.8744 17.2719C25.1521 17.596 25.6398 17.6338 25.9639 17.3562C25.9941 17.3303 26.0224 17.3021 26.0482 17.2719L33.7754 9.54472C34.0749 9.24344 34.0749 8.75669 33.7753 8.45528Z" fill="#FFE9CD"/>
</svg>
