<svg width="34" height="18" viewBox="0 0 34 18" fill="none" xmlns="http://www.w3.org/2000/svg">
<path d="M0.226678 9.54473L7.95377 17.2719C8.23135 17.596 8.71916 17.6338 9.04328 17.3562C9.3674 17.0786 9.40519 16.5908 9.12755 16.2666C9.10165 16.2364 9.0735 16.2082 9.04328 16.1824L2.63751 9.76884L33.2293 9.76884C33.656 9.76884 34.002 9.42287 34.002 8.99609C34.002 8.5693 33.656 8.22339 33.2293 8.22339L2.63751 8.2234L9.04328 1.81763C9.3674 1.54006 9.40519 1.05224 9.12755 0.728119C8.84991 0.403996 8.36216 0.366213 8.03804 0.643852C8.00783 0.66975 7.9796 0.697905 7.95377 0.728119L0.226609 8.45528C-0.0729437 8.75656 -0.0729437 9.24331 0.226678 9.54473Z" fill="#FFE9CD"/>
</svg>
