<svg width="34" height="18" viewBox="0 0 34 18" fill="none" xmlns="http://www.w3.org/2000/svg">
<path d="M0.224725 9.54473L7.95182 17.2719C8.22939 17.596 8.71721 17.6338 9.04133 17.3562C9.36545 17.0786 9.40324 16.5908 9.1256 16.2666C9.0997 16.2364 9.07154 16.2082 9.04133 16.1824L2.63556 9.76884L33.2273 9.76884C33.654 9.76884 34 9.42287 34 8.99609C34 8.5693 33.654 8.22339 33.2273 8.22339L2.63556 8.2234L9.04133 1.81763C9.36545 1.54006 9.40323 1.05224 9.1256 0.728119C8.84796 0.403996 8.36021 0.366213 8.03609 0.643852C8.00587 0.66975 7.97765 0.697905 7.95182 0.728119L0.224656 8.45528C-0.0748968 8.75656 -0.0748968 9.24331 0.224725 9.54473Z" fill="#181A1F"/>
</svg>
