<svg width="542" height="137" viewBox="0 0 542 137" fill="none" xmlns="http://www.w3.org/2000/svg">
<path opacity="0.1" d="M57.1489 1L57.1495 0.5L56.8749 0.499704L56.7273 0.731234L57.1489 1ZM132.358 46.4108L132.358 46.9108L132.649 46.9108L132.793 46.6582L132.358 46.4108ZM277.513 1.10895L277.513 0.608953L277.513 0.608953L277.513 1.10895ZM1.77735 90.6077L1.3482 90.3512L0.895864 91.1077L1.77735 91.1077L1.77735 90.6077ZM304.106 46.4108L303.675 46.6639L303.678 46.6686L304.106 46.4108ZM158.158 90.6077L158.158 91.1077L158.446 91.1077L158.591 90.858L158.158 90.6077ZM436.518 90.6077L436.518 90.1077H436.518L436.518 90.6077ZM195.419 135.879L195.419 136.379L195.422 136.379L195.419 135.879ZM245.379 47.5157L245.809 47.2595L245.368 46.5204L244.944 47.2696L245.379 47.5157ZM57.1484 1.5L158.157 1.60896L158.158 0.608959L57.1495 0.5L57.1484 1.5ZM56.7273 0.731234L27.7798 46.142L28.623 46.6796L57.5705 1.26877L56.7273 0.731234ZM28.2014 46.9108L132.358 46.9108L132.358 45.9108L28.2014 45.9108L28.2014 46.9108ZM132.793 46.6582L158.592 1.3564L157.723 0.861518L131.924 46.1634L132.793 46.6582ZM541.229 0.608957L277.513 0.608953L277.513 1.60895L541.229 1.60896L541.229 0.608957ZM277.513 0.608953L209.922 0.608956L209.922 1.60896L277.513 1.60895L277.513 0.608953ZM209.922 0.608956L158.158 0.608959L158.158 1.60896L209.922 1.60896L209.922 0.608956ZM1.34545 1.36089L27.7695 46.6627L28.6333 46.1589L2.20924 0.857044L1.34545 1.36089ZM2.2065 90.8643L28.6305 46.6674L27.7722 46.1542L1.3482 90.3512L2.2065 90.8643ZM304.537 46.1577L277.944 0.855832L277.082 1.36207L303.675 46.6639L304.537 46.1577ZM1.77735 91.1077L158.158 91.1077L158.158 90.1077L1.77735 90.1077L1.77735 91.1077ZM158.591 90.858L210.355 1.35929L209.489 0.858624L157.725 90.3574L158.591 90.858ZM303.678 46.6686L330.271 90.8655L331.128 90.3499L304.535 46.153L303.678 46.6686ZM330.257 90.8406L353.526 135.038L354.411 134.572L331.142 90.3748L330.257 90.8406ZM330.699 91.1077L436.518 91.1077L436.518 90.1077L330.699 90.1077L330.699 91.1077ZM436.518 91.1077H541.229V90.1077H436.518V91.1077ZM353.968 135.305L413.803 135.305L413.803 134.305L353.968 134.305L353.968 135.305ZM436.073 90.3791L413.358 134.576L414.248 135.033L436.963 90.8363L436.073 90.3791ZM1.77687 136.379C127 136.5 70.0003 136.5 195.419 136.379L195.418 135.379C70 135.5 127 135.5 1.77783 135.379L1.77687 136.379ZM195.422 136.379L353.972 135.305L353.965 134.305L195.416 135.379L195.422 136.379ZM244.944 47.2696L194.984 135.633L195.854 136.125L245.815 47.7618L244.944 47.2696ZM244.95 47.7719L297.028 135.061L297.887 134.548L245.809 47.2595L244.95 47.7719ZM28.2014 45.9108L1.77735 45.9108L1.77735 46.9108L28.2014 46.9108L28.2014 45.9108ZM413.803 135.305L541.229 135.305L541.229 134.305L413.803 134.305L413.803 135.305ZM541.229 45.9108L304.106 45.9108L304.106 46.9108L541.229 46.9108L541.229 45.9108Z" fill="#FFE9CD"/>
</svg>
