<svg width="137" height="542" viewBox="0 0 137 542" fill="none" xmlns="http://www.w3.org/2000/svg">
<path opacity="0.1" d="M1.01855 484.839L0.518555 484.839L0.518259 485.113L0.749788 485.261L1.01855 484.839ZM46.4293 409.63L46.9293 409.63L46.9293 409.339L46.6768 409.195L46.4293 409.63ZM1.12751 264.475L0.627508 264.475L0.627508 264.475L1.12751 264.475ZM90.6263 540.211L90.3697 540.64L91.1263 541.092L91.1263 540.211L90.6263 540.211ZM46.4293 237.882L46.6825 238.313L46.6871 238.31L46.4293 237.882ZM90.6263 383.83L91.1263 383.83L91.1263 383.542L90.8766 383.397L90.6263 383.83ZM90.6263 105.47L90.1263 105.47V105.47L90.6263 105.47ZM135.897 346.569L136.397 346.569L136.397 346.566L135.897 346.569ZM47.5343 296.609L47.2781 296.179L46.5389 296.62L47.2882 297.044L47.5343 296.609ZM1.51855 484.84L1.62751 383.831L0.627514 383.83L0.518555 484.839L1.51855 484.84ZM0.749788 485.261L46.1606 514.208L46.6981 513.365L1.28732 484.417L0.749788 485.261ZM46.9294 513.787L46.9293 409.63L45.9293 409.63L45.9294 513.787L46.9294 513.787ZM46.6768 409.195L1.37495 383.396L0.880073 384.265L46.1819 410.064L46.6768 409.195ZM0.627512 0.759033L0.627508 264.475L1.62751 264.475L1.62751 0.759033L0.627512 0.759033ZM0.627508 264.475L0.627511 332.066L1.62751 332.066L1.62751 264.475L0.627508 264.475ZM0.627511 332.066L0.627513 383.83L1.62751 383.83L1.62751 332.066L0.627511 332.066ZM1.37944 540.643L46.6813 514.219L46.1774 513.355L0.875599 539.779L1.37944 540.643ZM90.8829 539.782L46.6859 513.358L46.1728 514.216L90.3697 540.64L90.8829 539.782ZM46.1762 237.451L0.874387 264.044L1.38063 264.906L46.6825 238.313L46.1762 237.451ZM91.1263 540.211L91.1263 383.83L90.1263 383.83L90.1263 540.211L91.1263 540.211ZM90.8766 383.397L1.37784 331.633L0.877179 332.499L90.3759 384.263L90.8766 383.397ZM46.6871 238.31L90.884 211.717L90.3685 210.86L46.1716 237.454L46.6871 238.31ZM90.8592 211.731L135.056 188.462L134.59 187.577L90.3933 210.846L90.8592 211.731ZM91.1263 211.289L91.1263 105.47L90.1263 105.47L90.1263 211.289L91.1263 211.289ZM91.1263 105.47V0.759033H90.1263V105.47H91.1263ZM135.323 188.02L135.323 128.185L134.323 128.185L134.323 188.02L135.323 188.02ZM90.3977 105.915L134.595 128.63L135.052 127.74L90.8548 105.025L90.3977 105.915ZM136.398 540.211C136.519 414.988 136.518 471.988 136.397 346.569L135.397 346.57C135.518 471.988 135.519 414.988 135.398 540.21L136.398 540.211ZM136.397 346.566L135.323 188.016L134.323 188.023L135.397 346.572L136.397 346.566ZM47.2882 297.044L135.651 347.004L136.144 346.134L47.7804 296.173L47.2882 297.044ZM47.7905 297.038L135.079 244.96L134.567 244.101L47.2781 296.179L47.7905 297.038ZM45.9294 513.787L45.9293 540.211L46.9293 540.211L46.9294 513.787L45.9294 513.787ZM135.323 128.185L135.323 0.759033L134.323 0.759033L134.323 128.185L135.323 128.185ZM45.9293 0.759033L45.9293 237.882L46.9293 237.882L46.9293 0.759033L45.9293 0.759033Z" fill="#2C2928"/>
</svg>
