<svg width="14" height="14" viewBox="0 0 14 14" fill="none" xmlns="http://www.w3.org/2000/svg">
<path d="M13.4896 3.97685C13.4579 3.25813 13.3417 2.76402 13.1752 2.33586C13.0034 1.88139 12.7392 1.47449 12.393 1.13624C12.0547 0.792728 11.6452 0.525802 11.1959 0.356728C10.7653 0.190234 10.2738 0.0740086 9.55505 0.0423201C8.83097 0.00794791 8.6011 0 6.76461 0C4.92812 0 4.69825 0.00794792 3.97685 0.0396364C3.25813 0.0713249 2.76402 0.187654 2.33597 0.354044C1.88139 0.525802 1.47449 0.790044 1.13624 1.13624C0.792728 1.47449 0.525905 1.88407 0.356728 2.33328C0.190234 2.76402 0.0740086 3.25545 0.0423201 3.97417C0.00794791 4.69825 0 4.92812 0 6.76461C0 8.6011 0.00794792 8.83097 0.0396364 9.55237C0.0713249 10.2711 0.187654 10.7652 0.354147 11.1934C0.525905 11.6478 0.792728 12.0547 1.13624 12.393C1.47449 12.7365 1.88407 13.0034 2.33328 13.1725C2.76402 13.339 3.25545 13.4552 3.97427 13.4869C4.69557 13.5187 4.92554 13.5265 6.76203 13.5265C8.59852 13.5265 8.82839 13.5187 9.54979 13.4869C10.2685 13.4552 10.7626 13.339 11.1907 13.1725C12.0997 12.821 12.8185 12.1023 13.1699 11.1934C13.3363 10.7626 13.4526 10.2711 13.4843 9.55237C13.516 8.83097 13.524 8.6011 13.524 6.76461C13.524 4.92812 13.5213 4.69825 13.4896 3.97685ZM12.2715 9.49952C12.2424 10.1601 12.1314 10.5169 12.0389 10.7547C11.8116 11.344 11.344 11.8116 10.7547 12.0389C10.5169 12.1314 10.1575 12.2424 9.49952 12.2714C8.78607 12.3032 8.57209 12.311 6.76729 12.311C4.9625 12.311 4.74584 12.3032 4.03496 12.2714C3.37436 12.2424 3.01763 12.1314 2.77981 12.0389C2.48656 11.9306 2.21964 11.7588 2.00298 11.5342C1.77837 11.3148 1.60662 11.0506 1.49824 10.7574C1.40575 10.5195 1.29479 10.1601 1.26578 9.50221C1.23399 8.78875 1.22615 8.57467 1.22615 6.76988C1.22615 4.96508 1.23399 4.74842 1.26578 4.03765C1.29479 3.37704 1.40575 3.02031 1.49824 2.7825C1.60662 2.48915 1.77837 2.22232 2.00566 2.00556C2.2249 1.78095 2.48915 1.6092 2.7825 1.50092C3.02031 1.40843 3.37973 1.29747 4.03765 1.26836C4.7511 1.23668 4.96518 1.22873 6.76988 1.22873C8.57736 1.22873 8.79133 1.23668 9.50221 1.26836C10.1628 1.29747 10.5195 1.40843 10.7574 1.50092C11.0506 1.6092 11.3175 1.78095 11.5342 2.00556C11.7588 2.2249 11.9306 2.48915 12.0389 2.7825C12.1314 3.02031 12.2424 3.37962 12.2715 4.03765C12.3032 4.7511 12.3111 4.96508 12.3111 6.76988C12.3111 8.57467 12.3032 8.78607 12.2715 9.49952Z" fill="white"/>
<path d="M6.76483 3.29004C4.84649 3.29004 3.29004 4.84639 3.29004 6.76483C3.29004 8.68327 4.84649 10.2396 6.76483 10.2396C8.68327 10.2396 10.2396 8.68327 10.2396 6.76483C10.2396 4.84639 8.68327 3.29004 6.76483 3.29004ZM6.76483 9.01884C5.52031 9.01884 4.51082 8.00945 4.51082 6.76483C4.51082 5.52021 5.52031 4.51082 6.76483 4.51082C8.00945 4.51082 9.01884 5.52021 9.01884 6.76483C9.01884 8.00945 8.00945 9.01884 6.76483 9.01884Z" fill="white"/>
<path d="M11.1899 3.15251C11.1899 3.60049 10.8267 3.96372 10.3786 3.96372C9.93061 3.96372 9.56738 3.60049 9.56738 3.15251C9.56738 2.70444 9.93061 2.34131 10.3786 2.34131C10.8267 2.34131 11.1899 2.70444 11.1899 3.15251Z" fill="white"/>
</svg>
