<svg width="152" height="45" viewBox="0 0 152 45" fill="none" xmlns="http://www.w3.org/2000/svg">
<path fill-rule="evenodd" clip-rule="evenodd" d="M75.5281 14.9529H76.4926C76.4754 14.7456 76.479 14.5421 76.4827 14.3408C76.4896 13.9623 76.4964 13.5923 76.3636 13.2222C76.2796 12.926 76.1398 12.6489 75.9516 12.4058C75.5399 11.9178 74.9657 11.8209 74.393 11.7242L74.3435 11.7158C73.9105 11.6433 73.4867 11.7521 73.0768 11.8572L73.0382 11.8671C72.8233 11.911 72.6197 11.999 72.4403 12.1258C72.2609 12.2525 72.1096 12.4153 71.9959 12.6037C71.7463 13.0333 71.6134 13.5211 71.6104 14.0185V18.7437C71.6104 18.8039 71.61 18.8642 71.6096 18.9246C71.6068 19.3622 71.604 19.8011 71.7494 20.2234C71.895 20.6291 72.0786 21.0015 72.4707 21.2442C72.9257 21.5269 73.4352 21.6034 73.9432 21.6532C74.4607 21.6883 74.9783 21.5857 75.4437 21.3556C75.7857 21.1994 76.0588 20.9225 76.2113 20.5775C76.3984 20.1892 76.4925 19.762 76.486 19.3306V16.9198C76.486 16.8716 76.4809 16.8234 76.4757 16.776C76.4709 16.7303 76.4661 16.6854 76.4661 16.6421C76.0575 16.569 74.0689 16.5873 73.8505 16.6604V17.5233H75.4288C75.4589 17.6287 75.4788 17.7366 75.4884 17.8459C75.4861 18.2411 75.4791 18.6443 75.4723 19.039L75.4723 19.0401C75.4692 19.2195 75.4661 19.3973 75.4636 19.5717C75.4553 20.1303 74.8564 20.6557 74.3419 20.6474C74.1156 20.6568 73.8891 20.6514 73.6636 20.6307C73.3046 20.5775 72.9571 20.4512 72.8082 20.0937C72.7004 19.8462 72.6441 19.5791 72.6428 19.309V14.0634C72.6522 13.8593 72.6866 13.6573 72.7454 13.4616C72.8661 12.9844 73.2102 12.8181 73.6255 12.7467C73.862 12.7244 74.0996 12.7172 74.3369 12.725C74.8829 12.7018 75.4669 13.2737 75.4669 13.8174C75.4643 14.0176 75.4744 14.2177 75.4845 14.4172C75.4876 14.4778 75.4906 14.5386 75.4933 14.5988C75.4982 14.6824 75.5074 14.7652 75.5172 14.853C75.5208 14.8856 75.5245 14.9187 75.5281 14.9529ZM132.119 15.7395C132.115 15.1094 132.111 14.4786 132.124 13.849C132.142 13.2355 132.326 12.6685 132.815 12.2445C133.074 12.0385 133.375 11.8941 133.697 11.8222C134.082 11.7143 134.482 11.6771 134.88 11.7125C135.374 11.7355 135.854 11.8829 136.276 12.1415C136.654 12.3909 136.842 12.7649 136.986 13.1706C137.133 13.5766 137.13 13.9994 137.127 14.4209C137.127 14.4538 137.127 14.4869 137.127 14.5198C137.127 14.5418 137.127 14.5637 137.127 14.5855V19.2807C137.129 19.8091 136.984 20.3275 136.708 20.7771C136.542 21.0397 136.298 21.2442 136.012 21.3623C135.483 21.6122 134.897 21.7111 134.316 21.6483C133.853 21.5917 133.383 21.5169 132.978 21.2343C132.623 20.9766 132.366 20.6065 132.246 20.1835C132.116 19.7916 132.117 19.3961 132.117 18.9989C132.118 18.9678 132.118 18.9367 132.118 18.9056C132.118 18.888 132.118 18.8704 132.117 18.8526V18.829L132.117 18.8002V16.6804L132.124 16.6837C132.124 16.3695 132.122 16.0541 132.119 15.7395ZM133.151 16.6837V19.4204C133.146 19.6907 133.219 19.9567 133.363 20.1852C133.694 20.6956 134.521 20.9599 135.08 20.7455C135.436 20.6075 135.762 20.4129 135.908 20.0355C136.024 19.7569 136.086 19.4583 136.09 19.156V14.6271C136.098 14.2595 136.066 13.8922 135.995 13.5314C135.955 13.3206 135.846 13.1289 135.686 12.9862C135.527 12.8434 135.325 12.7575 135.112 12.7417C134.778 12.7176 134.443 12.7176 134.109 12.7417C133.943 12.7483 133.781 12.8 133.641 12.8913C133.501 12.9827 133.389 13.1101 133.315 13.2604C133.2 13.4935 133.143 13.7515 133.15 14.0119C133.155 14.6276 133.154 15.2441 133.152 15.8609C133.152 16.135 133.151 16.4094 133.151 16.6837ZM103.506 16.9215H107.235C107.252 16.8197 107.262 16.717 107.265 16.6139L107.266 16.4975V16.4952C107.276 15.7302 107.285 14.9664 107.265 14.2014C107.271 13.7562 107.167 13.3164 106.964 12.9212C106.51 12.1198 105.779 11.779 104.897 11.7142C104.586 11.6899 104.273 11.726 103.976 11.8206C103.75 11.8859 103.535 11.9822 103.335 12.1065C103.063 12.2873 102.838 12.5323 102.682 12.8205C102.526 13.1086 102.442 13.431 102.439 13.7592C102.406 14.5429 102.409 15.3297 102.412 16.1156V16.1168C102.413 16.3405 102.414 16.5648 102.414 16.7885C102.413 17.7661 102.418 18.7437 102.43 19.7213C102.449 20.1423 102.586 20.5493 102.826 20.8951C103.22 21.5269 103.862 21.7131 104.543 21.8029C104.866 21.8346 105.192 21.7944 105.498 21.6848C105.721 21.6223 105.938 21.5389 106.146 21.4354C106.583 21.1992 106.915 20.8061 107.076 20.3348C107.205 19.9921 107.229 19.6495 107.254 19.3031C107.259 19.2328 107.264 19.1618 107.27 19.0912C107.281 18.9332 107.218 18.8534 107.035 18.8534H106.484C106.241 18.8601 106.212 18.8917 106.201 19.1427C106.201 19.1681 106.202 19.1936 106.203 19.219C106.205 19.2697 106.208 19.3206 106.201 19.3705C106.196 19.5763 106.166 19.7808 106.11 19.979C106.013 20.2311 105.847 20.4503 105.631 20.6113C105.416 20.7724 105.159 20.8685 104.891 20.8884C104.712 20.9061 104.533 20.8866 104.362 20.8309C104.192 20.7752 104.035 20.6848 103.901 20.5651C103.768 20.4454 103.66 20.2992 103.586 20.1356C103.511 19.972 103.471 19.7948 103.468 19.6149V17.2357C103.474 17.1303 103.487 17.0254 103.506 16.9215ZM105.905 16.1184H104.803C104.669 16.1184 104.535 16.1189 104.401 16.1194C104.201 16.1202 104 16.1211 103.8 16.1201C103.511 16.1168 103.469 16.0818 103.469 15.8075C103.46 15.1674 103.456 14.5256 103.469 13.8855C103.468 13.6797 103.518 13.4767 103.614 13.295C103.71 13.1133 103.85 12.9586 104.02 12.8447C104.173 12.7337 104.349 12.6597 104.535 12.6284C104.72 12.5974 104.911 12.6098 105.091 12.6652C105.422 12.76 105.716 12.8797 105.918 13.1723C106.066 13.3434 106.157 13.5557 106.181 13.7808C106.184 13.9757 106.187 14.1703 106.191 14.3652V14.3692C106.199 14.8562 106.208 15.3443 106.208 15.8325C106.208 16.0552 106.138 16.1184 105.905 16.1184ZM61.0768 11.8339V16.1567C61.192 16.1721 61.308 16.1814 61.4242 16.1849H63.3384C63.6908 16.1849 63.7189 16.1517 63.7189 15.7842V11.8621H64.7595C64.8422 12.1564 64.8439 21.2243 64.7595 21.5169C64.7111 21.5284 64.6619 21.5362 64.6123 21.5402H63.7404C63.7373 21.4785 63.7333 21.4216 63.7296 21.3674C63.7231 21.2755 63.7172 21.1914 63.7172 21.1046V17.4219C63.7201 17.3893 63.7158 17.3564 63.7045 17.3258C63.6932 17.295 63.6753 17.2673 63.652 17.2443C63.6288 17.2214 63.6007 17.2039 63.57 17.1933C63.5392 17.1827 63.5064 17.179 63.474 17.1825H61.459C61.3813 17.1825 61.3028 17.1918 61.2127 17.2023C61.1703 17.2073 61.1254 17.2126 61.0768 17.2174V21.5402H60.1106C60.0858 21.5435 60.0606 21.5414 60.0369 21.5335C60.0131 21.5257 59.9914 21.5126 59.9734 21.4951C59.9554 21.4777 59.9416 21.4564 59.933 21.4328C59.9244 21.4092 59.9212 21.3839 59.9237 21.359V12.1614C59.9336 11.8655 59.9551 11.8405 60.2364 11.8289C60.4098 11.8217 60.5713 11.8252 60.7421 11.8291H60.7442C60.8497 11.8314 60.9591 11.8339 61.0768 11.8339ZM79.2191 21.5103C79.6001 21.5488 79.9836 21.5555 80.3656 21.5302L80.3672 17.2706C80.6435 17.1642 82.6751 17.1509 83.0242 17.254V21.5269H84.1691V11.8621H83.0309V16.1118C82.7248 16.2132 80.6899 16.2132 80.359 16.1118V11.8455C79.9793 11.8144 79.5976 11.8199 79.2191 11.8621V21.5103ZM94.3388 11.8887V21.5319C94.4241 21.5319 94.5083 21.5325 94.5912 21.5332C94.8361 21.535 95.0713 21.5369 95.3049 21.5219C95.3595 21.5219 95.4307 21.4238 95.4538 21.3556C95.4672 21.2697 95.4672 21.1822 95.4538 21.0963V14.4126C95.4588 14.2917 95.4704 14.1713 95.4886 14.0518H95.5647C95.5754 14.0844 95.5862 14.1173 95.5968 14.1502C95.6204 14.2234 95.6444 14.2972 95.6706 14.3694C95.7422 14.565 95.8147 14.7594 95.8873 14.9538C95.9971 15.2482 96.1073 15.5438 96.2149 15.8441C96.2685 15.9919 96.3196 16.1397 96.3707 16.2873C96.4344 16.4722 96.4983 16.6569 96.5673 16.8417C96.6336 17.0211 96.7023 17.1961 96.7711 17.3717C96.8789 17.647 96.9873 17.9235 97.0884 18.22C97.1711 18.4625 97.2538 18.7069 97.3364 18.9512C97.4193 19.1957 97.502 19.4401 97.5847 19.6831C97.7684 20.2084 97.957 20.7322 98.1588 21.2492C98.2002 21.3556 98.3027 21.5136 98.3888 21.5219C98.6502 21.5435 98.9125 21.54 99.1837 21.5364H99.1852C99.2891 21.5349 99.3951 21.5335 99.5022 21.5335C99.5055 21.4837 99.5093 21.4384 99.5128 21.3964C99.5196 21.3137 99.5253 21.2432 99.5253 21.1728V12.208C99.5253 12.1275 99.5156 12.0472 99.5058 11.9662C99.5015 11.9316 99.4974 11.8969 99.4939 11.8621H98.4549V18.0953C98.4583 18.2145 98.4549 18.3338 98.445 18.4527C98.4258 18.5216 98.3974 18.5876 98.3606 18.6489L95.8906 11.8455H94.5042C94.4474 11.8532 94.392 11.8676 94.3388 11.8887ZM122.51 14.9479H123.503C123.494 14.7712 123.495 14.5991 123.495 14.43C123.497 14.033 123.499 13.6508 123.375 13.2604C123.266 12.8012 123 12.395 122.624 12.1115C122.24 11.8389 121.795 11.7641 121.352 11.7125C120.804 11.6636 120.253 11.7557 119.751 11.9802C119.557 12.0577 119.382 12.175 119.236 12.3248C119.09 12.4746 118.978 12.6534 118.905 12.8497C118.724 13.3244 118.635 13.8295 118.642 14.3378V19.0313C118.637 19.5068 118.717 19.9793 118.879 20.4262C118.954 20.643 119.075 20.8411 119.232 21.0072C119.39 21.1732 119.581 21.3034 119.794 21.3889C119.944 21.4532 120.098 21.4822 120.25 21.5108C120.358 21.531 120.465 21.5512 120.569 21.5834C121.139 21.7563 121.681 21.6183 122.209 21.4354C122.488 21.3107 122.756 21.1609 123.008 20.9882C123.053 21.0394 123.082 21.1079 123.111 21.1799C123.175 21.332 123.244 21.4993 123.491 21.5502C123.491 21.0745 123.492 20.6013 123.494 20.1295V20.1285C123.498 18.9533 123.502 17.7862 123.473 16.6122H120.991C120.954 16.9125 120.954 17.2164 120.991 17.5167H122.419C122.442 17.5739 122.458 17.6336 122.467 17.6946C122.467 17.874 122.469 18.0537 122.472 18.2334C122.478 18.7063 122.484 19.1794 122.447 19.6481C122.417 19.9005 122.303 20.135 122.122 20.313C121.942 20.4911 121.706 20.602 121.455 20.6274C121.197 20.6632 120.936 20.6632 120.679 20.6274C120.285 20.5676 119.926 20.4013 119.81 19.9757C119.73 19.6835 119.687 19.3825 119.683 19.0795V14.6138C119.682 14.2678 119.71 13.9224 119.767 13.5813C119.803 13.3527 119.917 13.1439 120.089 12.9904C120.262 12.8368 120.482 12.7483 120.712 12.74C120.887 12.724 121.063 12.7262 121.239 12.7285C121.301 12.7292 121.363 12.73 121.425 12.73C121.905 12.7267 122.451 13.2604 122.469 13.7692C122.482 14.0734 122.482 14.3777 122.482 14.6819C122.483 14.7406 122.491 14.7993 122.499 14.8638L122.501 14.8745L122.504 14.8962C122.506 14.913 122.508 14.9302 122.51 14.9479ZM144.494 21.5369C144.212 21.5224 144.169 21.3269 144.124 21.1195C144.112 21.0657 144.1 21.0108 144.084 20.9583C143.997 21.0008 143.913 21.0491 143.832 21.1029C143.551 21.3315 143.222 21.493 142.869 21.5751C142.545 21.6567 142.21 21.686 141.877 21.6616C141.094 21.5901 140.424 21.2991 140.057 20.5459C139.945 20.315 139.868 20.0693 139.827 19.8161C139.788 19.5474 139.772 19.276 139.779 19.0047V12.2578C139.779 12.1726 139.786 12.0881 139.794 11.9978C139.797 11.9696 139.799 11.9405 139.801 11.9109C139.803 11.8932 139.804 11.8753 139.805 11.8572H140.858C140.859 11.8871 140.861 11.9168 140.864 11.9466L140.866 11.9752L140.869 12.0066C140.877 12.0949 140.884 12.1822 140.884 12.2695V19.1477C140.872 19.5165 140.962 19.8814 141.144 20.2018C141.218 20.3257 141.321 20.4299 141.444 20.5059C141.566 20.5819 141.705 20.6276 141.849 20.6391C141.954 20.6515 142.06 20.6497 142.166 20.6477C142.244 20.6462 142.322 20.6449 142.399 20.649C142.864 20.679 143.367 20.1752 143.384 19.718C143.387 19.6164 143.394 19.5148 143.4 19.4132C143.409 19.2654 143.419 19.1176 143.419 18.9698V12.2894C143.419 12.0605 143.419 11.9471 143.475 11.8906C143.53 11.8352 143.64 11.8347 143.859 11.8339H144.484C144.573 12.1631 144.573 21.1811 144.494 21.5369ZM148.554 18.5342C148.554 18.6246 148.548 18.7005 148.544 18.7695C148.539 18.8271 148.536 18.8802 148.536 18.9332V21.1162C148.536 21.3257 148.536 21.4318 148.483 21.4853C148.429 21.5402 148.32 21.5402 148.099 21.5402H147.677C147.536 21.5402 147.462 21.4637 147.455 21.3224V12.3609C147.455 11.8146 147.504 11.8169 147.794 11.8304C147.851 11.833 147.918 11.836 147.995 11.8355C148.192 11.8355 148.39 11.8344 148.588 11.8334H148.589C149.115 11.8304 149.642 11.8274 150.167 11.8455C150.57 11.856 150.958 12.0026 151.269 12.2617C151.579 12.5207 151.793 12.8772 151.878 13.2737C151.963 13.6554 152.001 14.0463 151.99 14.4375C151.99 14.6389 151.993 14.8404 151.995 15.0421V15.0444C152.001 15.5481 152.007 16.0524 151.975 16.554C151.934 17.2041 151.709 17.791 151.117 18.1651C150.918 18.287 150.701 18.3774 150.475 18.4328C150.069 18.5425 149.661 18.541 149.253 18.5395C149.135 18.539 149.017 18.5385 148.9 18.5408L148.554 18.5342ZM148.554 17.5067H150.119C150.193 17.4982 150.265 17.4744 150.329 17.4369C150.769 17.239 150.913 16.8367 150.93 16.411C150.959 15.588 150.953 14.7617 150.93 13.9371C150.914 13.6907 150.845 13.4509 150.728 13.2338C150.539 12.8647 150.16 12.8032 149.796 12.7699C149.542 12.7481 149.285 12.7565 149.029 12.7648C148.998 12.7658 148.967 12.7668 148.936 12.7676C148.91 12.7684 148.884 12.7693 148.858 12.7699C148.584 12.7699 148.551 12.8115 148.539 13.1024V17.1376C148.537 17.2093 148.541 17.2874 148.546 17.3813C148.548 17.4226 148.55 17.4668 148.552 17.515L148.554 17.5067ZM112.981 11.9935H109.86C109.857 12.0394 109.853 12.0836 109.849 12.1268C109.839 12.2293 109.83 12.3265 109.832 12.4258V15.1641C109.835 15.7648 109.841 16.3653 109.846 16.9662V16.9763C109.854 17.9586 109.862 18.941 109.862 19.9241C109.867 20.3238 109.973 20.7159 110.17 21.063C110.28 21.2856 110.448 21.4743 110.657 21.609C110.865 21.7435 111.105 21.8192 111.353 21.8278C111.644 21.8489 111.936 21.8449 112.226 21.8162C112.439 21.7946 112.643 21.7204 112.82 21.6004C112.998 21.4802 113.142 21.3179 113.242 21.1279C113.419 20.7799 113.521 20.3978 113.538 20.0073C113.571 19.58 113.563 19.1528 113.556 18.7262V18.7226C113.553 18.541 113.55 18.3596 113.55 18.1784C113.55 18.1681 113.541 18.1576 113.527 18.142C113.519 18.1325 113.509 18.1212 113.499 18.1069C113.179 18.0923 112.86 18.0951 112.541 18.1152V18.5093C112.54 18.6396 112.541 18.7701 112.541 18.9006C112.543 19.2594 112.544 19.6184 112.526 19.9757C112.517 20.1921 112.46 20.4038 112.36 20.5958C112.203 20.8901 111.92 20.9566 111.589 20.9566C111.418 20.9491 111.254 20.8813 111.128 20.7649C111.001 20.6484 110.919 20.4909 110.896 20.3198C110.887 20.1561 110.874 19.9923 110.86 19.8284C110.836 19.5268 110.812 19.225 110.812 18.9232C110.789 17.64 110.789 16.3583 110.789 15.0768V13.1191C110.79 12.8265 110.866 12.755 111.158 12.755H112.617C112.67 12.7541 112.723 12.75 112.778 12.7455C112.842 12.7403 112.909 12.735 112.981 12.735V11.9935ZM130.59 14.5074H129.588C129.573 14.3827 129.558 14.258 129.545 14.1349C129.535 14.046 129.526 13.9567 129.518 13.8674L129.518 13.8664C129.499 13.6642 129.48 13.4617 129.44 13.2637C129.413 13.155 129.364 13.0531 129.296 12.9643C129.228 12.8755 129.143 12.8017 129.045 12.7475C128.947 12.6931 128.84 12.6597 128.729 12.6489C128.618 12.6382 128.506 12.6506 128.4 12.6851C128.054 12.7882 127.892 13.0177 127.771 13.3419C127.681 13.619 127.643 13.9103 127.657 14.2014V21.6433H126.499C126.498 21.6313 126.496 21.6195 126.495 21.6075L126.493 21.5942L126.492 21.5832L126.491 21.5751L126.489 21.5595C126.488 21.5482 126.486 21.5369 126.485 21.5257C126.475 21.4492 126.465 21.3734 126.464 21.2974C126.451 18.2903 126.438 15.2826 126.426 12.2745C126.426 12.1859 126.436 12.0979 126.446 12.0028C126.452 11.9498 126.458 11.8944 126.462 11.8355C126.871 11.8578 126.991 12.1215 127.113 12.391C127.164 12.5044 127.216 12.6188 127.29 12.7167C127.335 12.6276 127.387 12.5422 127.445 12.4607C127.575 12.2765 127.744 12.124 127.941 12.0149C128.137 11.9059 128.356 11.8427 128.58 11.8306C128.717 11.8239 128.854 11.8261 128.99 11.8284C129.059 11.8294 129.127 11.8306 129.196 11.8306C129.422 11.8294 129.645 11.8936 129.836 12.0151C130.028 12.1368 130.181 12.3111 130.278 12.5172C130.578 13.1339 130.687 13.8275 130.59 14.5074ZM68.8376 11.8621H67.8731C67.8696 11.8954 67.8657 11.9273 67.8619 11.9582C67.8516 12.0429 67.8421 12.1205 67.8433 12.1997V21.1877C67.8501 21.2994 67.865 21.4107 67.888 21.5202H68.8459C68.9369 21.201 68.9303 12.1448 68.8376 11.8621ZM115.772 29.9729C115.772 30.1104 115.77 30.2486 115.768 30.3868C115.765 30.6631 115.762 30.9394 115.772 31.2099C115.791 31.524 115.741 31.8384 115.626 32.131C115.56 32.3202 115.444 32.4876 115.291 32.6153C115.137 32.7432 114.951 32.8263 114.754 32.8559C114.497 32.8883 114.238 32.8933 113.98 32.8709C113.734 32.8564 113.5 32.7581 113.316 32.5924C113.133 32.4264 113.011 32.2028 112.971 31.9581C112.914 31.662 112.882 31.3617 112.875 31.0603C112.865 30.5974 112.868 30.1345 112.871 29.6722V29.6673C112.873 29.4372 112.875 29.2068 112.875 28.977C112.864 28.642 112.894 28.307 112.964 27.9795C113.029 27.7096 113.186 27.4709 113.408 27.3044C113.867 26.932 114.822 26.9603 115.274 27.3377C115.432 27.4752 115.558 27.6458 115.643 27.8372C115.729 28.0287 115.772 28.2367 115.77 28.4467C115.788 28.7858 115.782 29.1257 115.776 29.4657C115.773 29.6359 115.77 29.806 115.77 29.9763L115.772 29.9729ZM113.568 29.9463V31.6089C113.563 31.727 113.585 31.8445 113.631 31.9531C113.796 32.2773 114.127 32.397 114.542 32.2989C114.697 32.2688 114.835 32.1827 114.93 32.057C115.026 31.9315 115.072 31.7749 115.06 31.6173V28.3319C115.06 27.8764 114.786 27.6237 114.331 27.6187C113.834 27.6187 113.576 27.8481 113.568 28.3236C113.563 28.6826 113.564 29.043 113.566 29.404C113.567 29.5847 113.568 29.7656 113.568 29.9463ZM124.11 31.7868V29.9979H124.108V28.1424C124.094 27.895 123.995 27.6601 123.829 27.4774C123.425 26.957 122.331 26.8888 121.795 27.3111C121.64 27.4262 121.514 27.5766 121.428 27.7499C121.342 27.9233 121.297 28.1148 121.299 28.3087V31.4327C121.289 31.6804 121.331 31.9275 121.423 32.1576C121.492 32.344 121.61 32.5079 121.765 32.6316C121.92 32.7553 122.105 32.834 122.302 32.8592C122.559 32.884 122.818 32.8878 123.076 32.8709C123.562 32.8592 124.11 32.3172 124.11 31.7868ZM123.501 29.4642C123.5 29.6304 123.499 29.7967 123.499 29.963H123.493C123.493 30.0188 123.493 30.0745 123.492 30.1302C123.492 30.1751 123.492 30.22 123.492 30.2649C123.49 30.609 123.488 30.9517 123.509 31.2914C123.511 31.5285 123.466 31.7636 123.377 31.983C123.291 32.2274 123.078 32.2773 122.864 32.3155C122.363 32.4053 122.075 32.1975 122.004 31.6987C121.975 31.506 121.959 31.3117 121.956 31.1168V29.002C121.959 28.731 121.982 28.4616 122.012 28.1923C122.014 28.114 122.032 28.037 122.064 27.9658C122.097 27.8945 122.143 27.8303 122.2 27.7771C122.257 27.7239 122.324 27.6827 122.397 27.6558C122.47 27.6288 122.548 27.6169 122.626 27.6203C122.646 27.6198 122.666 27.6192 122.686 27.6185C122.868 27.6122 123.049 27.606 123.208 27.7484C123.306 27.8398 123.382 27.9514 123.432 28.0754C123.483 28.1993 123.506 28.3328 123.499 28.4666C123.505 28.799 123.503 29.1318 123.501 29.4642ZM88.4855 30.9555V31.6838C88.497 32.2008 88.8808 32.3721 89.3011 32.3272C89.4136 32.3096 89.5209 32.268 89.6159 32.205C89.7109 32.142 89.7913 32.059 89.8515 31.9621C89.9119 31.865 89.9506 31.7561 89.9652 31.6427C89.9799 31.5293 89.97 31.4139 89.9364 31.3047C89.8532 31.0157 89.6847 30.7589 89.4533 30.5681C89.0628 30.2572 88.6856 29.928 88.3167 29.5905C88.1774 29.4723 88.0662 29.3242 87.9914 29.1569C87.9167 28.9897 87.8803 28.8078 87.8849 28.6246C87.8781 28.3449 87.9071 28.0656 87.9709 27.7933C88.0242 27.6287 88.1177 27.4799 88.2427 27.3608C88.368 27.2418 88.5207 27.1561 88.6873 27.1116C89.1456 26.9686 89.9463 26.9753 90.3103 27.484C90.419 27.6137 90.499 27.765 90.5452 27.9279C90.5862 28.2069 90.6001 28.4892 90.5866 28.7709C90.5866 28.9371 90.5055 28.9654 90.2457 28.9637C90.0952 28.9637 89.9893 28.9272 89.9827 28.7542C89.9802 28.6914 89.9796 28.628 89.9789 28.5647C89.9777 28.4538 89.9767 28.3427 89.9661 28.2338C89.9298 27.9795 89.8222 27.7351 89.5625 27.6636C89.3027 27.5921 88.9884 27.5422 88.7435 27.7866C88.6337 27.9189 88.5596 28.0774 88.528 28.2468C88.4964 28.4162 88.5086 28.591 88.5632 28.7542C88.6951 29.0839 88.9206 29.3672 89.2117 29.5689C89.4963 29.7767 89.7726 29.9962 90.0389 30.2207C90.3281 30.4747 90.5234 30.8197 90.5932 31.1993C90.6628 31.579 90.6028 31.9712 90.4228 32.3122C90.3477 32.4612 90.237 32.5892 90.1008 32.685C89.9645 32.7807 89.807 32.8411 89.6419 32.8609C89.3838 32.8858 89.1241 32.8858 88.866 32.8609C88.6244 32.8391 88.3971 32.7365 88.2204 32.5694C88.0437 32.4025 87.9279 32.1807 87.8915 31.9398C87.8444 31.6961 87.8129 31.4495 87.7972 31.2016C87.7873 30.9555 87.8286 30.9289 88.0818 30.9239C88.1446 30.9266 88.2077 30.9323 88.2795 30.9387C88.3399 30.9442 88.4069 30.9502 88.4855 30.9555ZM103.218 30.169C103.222 30.135 103.226 30.0993 103.23 30.0611C103.265 30.0584 103.299 30.0554 103.332 30.0526C103.424 30.0444 103.509 30.0369 103.597 30.0394H105.086C105.136 30.0394 105.187 30.0346 105.238 30.0296C105.291 30.0246 105.345 30.0195 105.4 30.0195C105.4 29.8449 105.402 29.6735 105.403 29.5046V29.5034C105.407 29.0886 105.411 28.6877 105.39 28.2887C105.363 28.0761 105.289 27.8722 105.174 27.6918C105.011 27.3992 104.732 27.2562 104.417 27.1448C104.21 27.0699 103.988 27.0459 103.77 27.0748C103.552 27.1038 103.344 27.1847 103.163 27.3111C102.77 27.5522 102.637 27.9579 102.627 28.3835C102.604 29.4243 102.604 30.4662 102.627 31.5092C102.647 31.7639 102.718 32.0118 102.837 32.2374C102.971 32.5167 103.225 32.6497 103.526 32.7545C103.954 32.9058 104.331 32.796 104.709 32.6414C105.205 32.4386 105.521 31.6937 105.37 31.195C105.289 31.1517 105.199 31.1298 105.107 31.1313C105.015 31.1326 104.926 31.1574 104.846 31.2033C104.834 31.2664 104.825 31.3303 104.821 31.3945C104.829 31.527 104.806 31.6597 104.753 31.7815C104.701 31.9036 104.621 32.0115 104.52 32.0967C104.418 32.182 104.298 32.2424 104.17 32.2728C104.041 32.3034 103.907 32.3032 103.779 32.2723C103.693 32.262 103.611 32.2313 103.539 32.1827C103.468 32.1342 103.409 32.0691 103.367 31.993C103.262 31.8171 103.205 31.6163 103.201 31.4111C103.21 31.1805 103.207 30.9486 103.204 30.7165C103.203 30.6004 103.201 30.4845 103.201 30.3686C103.203 30.3053 103.21 30.2411 103.218 30.169ZM104.811 29.5107C104.55 29.5955 103.592 29.6072 103.21 29.5274C103.21 29.4035 103.205 29.2798 103.2 29.1568C103.189 28.8603 103.178 28.5672 103.233 28.2854C103.311 27.8282 103.465 27.6104 103.972 27.6037C104.48 27.5971 104.747 27.8947 104.8 28.2887C104.83 28.6954 104.834 29.1036 104.811 29.5107ZM111.472 32.269V32.8243C111.371 32.8404 111.269 32.8516 111.167 32.8576H109.061C108.73 32.8576 108.719 32.8359 108.717 32.5001C108.717 31.6838 109.091 31.0453 109.654 30.4933C109.77 30.3789 109.881 30.2591 109.993 30.1394C110.113 30.0103 110.234 29.8808 110.36 29.7585C110.676 29.4492 110.782 29.0435 110.878 28.6379C110.942 28.3675 110.821 28.1175 110.709 27.883L110.698 27.8598C110.663 27.7918 110.61 27.7344 110.546 27.6935C110.482 27.6526 110.408 27.6297 110.332 27.627L110.307 27.6253C109.999 27.6057 109.694 27.5861 109.515 27.9196C109.467 28.0007 109.435 28.0897 109.419 28.1823C109.407 28.2846 109.406 28.3838 109.405 28.4829C109.404 28.5448 109.404 28.6069 109.401 28.6694C109.389 28.9272 109.336 28.9704 109.051 28.9687C108.767 28.9671 108.721 28.9238 108.721 28.6844C108.73 28.1607 108.775 27.642 109.248 27.2978C109.442 27.1413 109.68 27.0527 109.928 27.0451H109.962L109.996 27.0449C110.295 27.0441 110.588 27.0433 110.871 27.1964C111.035 27.2747 111.176 27.3926 111.283 27.5394C111.39 27.6863 111.459 27.8574 111.483 28.0377C111.523 28.3394 111.523 28.6452 111.483 28.9471C111.44 29.2469 111.308 29.5269 111.106 29.7518L111.002 29.8718C110.655 30.2727 110.306 30.6747 109.948 31.0603C109.743 31.2922 109.579 31.5576 109.463 31.845C109.431 31.9839 109.417 32.1265 109.424 32.269H111.472ZM100.675 28.9621H101.299C101.3 28.8891 101.302 28.8176 101.305 28.7468C101.309 28.6242 101.313 28.5035 101.31 28.3835C101.303 28.254 101.286 28.1249 101.261 27.9978C101.231 27.8298 101.163 27.6711 101.062 27.5339C100.962 27.3966 100.831 27.2845 100.68 27.2064C100.407 27.0371 100.121 27.0384 99.8208 27.0399C99.7937 27.0399 99.7662 27.0401 99.7388 27.0401C99.1945 27.0434 98.5807 27.5223 98.5807 28.1457C98.5798 28.5763 98.5765 29.007 98.5732 29.4376C98.5696 29.9297 98.5658 30.4218 98.5658 30.914C98.5658 31.2398 98.5691 31.5657 98.5923 31.8899C98.6212 32.1307 98.7276 32.3555 98.895 32.53C99.0624 32.7046 99.282 32.8197 99.5204 32.8576C99.8001 32.8758 100.081 32.8758 100.361 32.8576C100.669 32.8443 101.145 32.4785 101.241 32.0612C101.295 31.7958 101.322 31.5256 101.322 31.2548C101.337 30.7494 101.281 30.7128 100.784 30.7843C100.744 30.7974 100.707 30.8159 100.672 30.8392V31.7386C100.671 31.8425 100.641 31.944 100.586 32.0319C100.531 32.1199 100.453 32.191 100.361 32.2374C100.243 32.3086 100.108 32.3468 99.9704 32.3481C99.8327 32.3496 99.6972 32.3144 99.5776 32.2459C99.458 32.1772 99.3587 32.078 99.2901 31.9583C99.2213 31.8384 99.1854 31.7024 99.1862 31.5641C99.1807 30.8626 99.1826 30.1611 99.1844 29.459C99.1852 29.1079 99.1862 28.7566 99.1862 28.4051C99.1862 27.9512 99.4608 27.5638 100.013 27.6187C100.409 27.6553 100.659 27.8764 100.675 28.2654V28.9621ZM117.898 32.2341C118.275 32.2828 118.648 32.2776 119.02 32.2727C119.322 32.2685 119.625 32.2643 119.929 32.2889V32.8359H117.294C117.219 32.1709 117.249 31.5524 117.712 31.0337L118.487 30.1741C118.541 30.1133 118.597 30.0532 118.653 29.9931C118.78 29.8562 118.908 29.7184 119.021 29.5706C119.173 29.3729 119.281 29.1441 119.335 28.9002C119.39 28.6561 119.39 28.4033 119.337 28.159C119.316 28.0082 119.241 27.8701 119.128 27.7695C119.014 27.6689 118.868 27.6124 118.717 27.6104C118.156 27.5671 117.889 27.9346 117.869 28.4267C117.869 28.5353 117.864 28.6437 117.859 28.7596C117.856 28.8212 117.854 28.8851 117.851 28.9521H117.342C117.161 28.3336 117.276 27.6353 117.709 27.3294C117.917 27.1576 118.175 27.0584 118.444 27.0467C118.485 27.0467 118.526 27.0462 118.568 27.0456C118.836 27.0419 119.101 27.0384 119.355 27.1897C119.502 27.2629 119.632 27.3665 119.736 27.4937C119.84 27.621 119.916 27.769 119.959 27.9279C120.046 28.1735 120.077 28.4354 120.05 28.6944C119.968 29.1913 119.744 29.6534 119.405 30.0245C119.262 30.1741 119.12 30.3259 118.979 30.4775C118.837 30.6293 118.696 30.781 118.553 30.9306C118.194 31.2781 117.963 31.7376 117.898 32.2341ZM94.5505 32.6863H95.065C95.0692 32.6404 95.0741 32.5955 95.0791 32.5515C95.0902 32.453 95.101 32.3581 95.0998 32.264V29.2996C95.1031 28.9421 95.1196 28.583 95.156 28.2272C95.1749 28.1015 95.2328 27.9851 95.3215 27.8947C95.611 27.5954 96.243 27.745 96.3935 28.1258C96.4682 28.3166 96.5037 28.5208 96.4978 28.726V32.3089C96.4978 32.3714 96.5016 32.4344 96.5052 32.4971C96.509 32.5595 96.5127 32.6216 96.5127 32.683H97.0536C97.0677 32.6466 97.0778 32.6087 97.0834 32.5699C97.0838 32.2589 97.0846 31.9478 97.0856 31.6365C97.0886 30.5475 97.0915 29.457 97.0735 28.3685C97.0609 28.0425 96.9317 27.7319 96.7095 27.494C96.3968 27.1382 95.3992 27.0833 95.0005 27.4042C94.965 27.4318 94.9256 27.4542 94.875 27.4833C94.8432 27.5016 94.8066 27.5226 94.7639 27.5489L94.6713 27.3078L94.5505 27.361V32.6863ZM91.4468 16.1899C91.5473 16.5022 91.5524 16.8373 91.4617 17.1526C91.4007 17.1526 91.3434 17.1569 91.2879 17.1612C91.2349 17.1652 91.1833 17.1692 91.1309 17.1692H87.2744C87.2446 17.17 87.2149 17.1645 87.1874 17.1529C87.1598 17.1414 87.135 17.1243 87.1146 17.1024C87.0941 17.0806 87.0784 17.0546 87.0686 17.0264C87.0588 16.9981 87.055 16.968 87.0577 16.9381V16.8716C87.0577 16.8099 87.0572 16.7537 87.0569 16.7025C87.0549 16.4381 87.0539 16.3086 87.1178 16.2458C87.1791 16.1856 87.3002 16.1868 87.5373 16.1889C87.5873 16.1894 87.6422 16.1899 87.7029 16.1899H91.4468ZM92.1351 32.8359H92.7968V27.2579C92.799 27.2333 92.7957 27.2087 92.7871 27.1856C92.7785 27.1625 92.7649 27.1415 92.7474 27.1244C92.7298 27.1071 92.7087 27.0941 92.6855 27.0861C92.6622 27.0782 92.6375 27.0755 92.6132 27.0783H92.3535C92.3209 27.0767 92.2883 27.0818 92.2578 27.0936C92.2274 27.1054 92.1998 27.1236 92.1766 27.1467C92.1536 27.1699 92.1356 27.1977 92.1238 27.2283C92.1121 27.2589 92.107 27.2916 92.1086 27.3244V32.4702C92.1096 32.5455 92.1166 32.6208 92.1238 32.7023C92.1276 32.7448 92.1316 32.7892 92.1351 32.8359ZM125.599 30.0195C125.599 29.7036 125.599 29.6953 125.842 29.687H127.591C127.655 29.6793 127.72 29.6896 127.779 29.7169C127.808 29.7355 127.833 29.7598 127.852 29.7884C127.87 29.8171 127.883 29.8494 127.889 29.8832C127.889 29.9347 127.806 29.9879 127.748 30.0245C127.708 30.0388 127.664 30.0428 127.622 30.0361H125.776C125.717 30.0349 125.657 30.0293 125.599 30.0195ZM84.3213 29.6936C84.0533 29.6953 84.05 29.7119 84.0946 30.0444L86.1478 30.0361C86.155 30.0361 86.1631 30.0374 86.1713 30.0388C86.1873 30.0413 86.2029 30.0438 86.2106 30.0361C86.2224 30.0251 86.2356 30.0138 86.249 30.0025C86.2947 29.9636 86.343 29.9226 86.343 29.8815C86.3266 29.813 86.2844 29.7535 86.2255 29.7152C86.1762 29.693 86.1218 29.6855 86.0684 29.6936H84.3213Z" fill="#FFE9CD"/>
<path fill-rule="evenodd" clip-rule="evenodd" d="M44.5004 0C44.539 0.188053 44.5645 0.378501 44.5769 0.570016V44.0548C44.5769 44.1609 44.5708 44.2617 44.5641 44.3696L44.5611 44.4181C44.56 44.4385 44.5588 44.4591 44.5576 44.4803C44.5561 44.5057 44.5548 44.5318 44.5536 44.5588C44.5048 44.5612 44.4599 44.5637 44.4178 44.5662C44.3164 44.572 44.2301 44.5769 44.1397 44.5769H0.266023C0.0448922 44.567 0.0133011 44.5323 0 44.3043V0.560103C0 0.351923 0 0.153657 0.166264 0.00165222L44.5004 0ZM43.0556 1.62579H2.19302C2.10207 1.62579 2.02393 1.62353 1.95676 1.62159C1.77769 1.61642 1.67693 1.61351 1.62024 1.66175C1.54741 1.72376 1.54758 1.8703 1.54791 2.20522V42.7364C1.55573 42.8066 1.56853 42.8761 1.58615 42.9445C1.8821 43.0288 42.7181 43.0321 43.0523 42.9445L43.0556 1.62579ZM39.6539 23.5822L7.25075 5.1219C7.31643 5.08752 7.38559 5.05984 7.45692 5.03929C7.52792 5.03268 7.60024 5.03488 7.67273 5.03708C7.70881 5.03818 7.74506 5.03929 7.78114 5.03929H13.5837C14.3552 5.03929 14.3552 5.03929 15.0003 5.41933L15.0086 5.42426C15.5742 5.7532 16.143 6.07811 16.7118 6.40294L16.7135 6.40389C16.9582 6.54361 17.2035 6.6837 17.4477 6.82369C17.7282 6.98476 18.0088 7.14655 18.2893 7.30832C18.757 7.57798 19.2246 7.84764 19.6923 8.11407C20.0353 8.3095 20.3783 8.49939 20.7203 8.68865C21.124 8.91216 21.5263 9.13488 21.9252 9.36481C22.4639 9.66716 23.0009 9.97613 23.5363 10.2851C24.545 10.8634 25.553 11.4416 26.5606 12.0199C27.5682 12.5982 28.579 13.1743 29.5933 13.7481C29.6556 13.7842 29.7218 13.8126 29.7983 13.8453C29.8338 13.8606 29.8717 13.8768 29.9125 13.8952C29.9334 13.811 29.9479 13.7254 29.9557 13.6391V10.2686C29.9625 10.1938 29.9447 10.1188 29.9053 10.0548C29.8658 9.99075 29.8064 9.94115 29.7362 9.91334C28.7659 9.37715 27.8028 8.82833 26.8401 8.27983L26.5955 8.14051C25.7165 7.63933 24.8393 7.13596 23.9636 6.63038L21.7556 5.35817L21.3399 5.1219C21.3915 5.08849 21.4473 5.06236 21.5062 5.04425C21.6141 5.03845 21.7223 5.03845 21.8304 5.04425H27.6978C28.0698 5.04425 28.2518 5.04425 28.4204 5.09127C28.582 5.13631 28.7313 5.22446 29.0238 5.39705L29.028 5.39948C29.5736 5.71414 30.1201 6.02532 30.6668 6.33663C30.9613 6.50427 31.2557 6.67193 31.5502 6.84021L34.5728 8.57339L36.3868 9.59612C36.4491 9.63612 36.5225 9.65627 36.5966 9.65391C36.6709 9.65155 36.7428 9.62678 36.8024 9.5829C37.6687 9.01949 38.5399 8.46434 39.4111 7.9092C39.5217 7.84818 39.6354 7.79303 39.752 7.74398C39.7554 7.7913 39.7598 7.83553 39.7639 7.87776C39.7716 7.95493 39.7786 8.02542 39.7786 8.0959V15.4945C39.6635 15.5682 39.5953 15.5269 39.5164 15.479C39.5085 15.4743 39.5006 15.4695 39.4926 15.4648C38.628 14.9581 37.759 14.458 36.8856 13.9646C36.2746 13.617 35.6607 13.2738 35.0467 12.9307L35.0455 12.9301L35.0444 12.9294C34.7369 12.7576 34.4294 12.5855 34.1223 12.4132C34.0167 12.3536 33.9108 12.2945 33.805 12.2353C33.4647 12.045 33.1245 11.8548 32.7922 11.6531C32.7701 11.6335 32.7436 11.6197 32.7149 11.6127C32.6861 11.6058 32.6562 11.606 32.6274 11.6134C32.5988 11.6207 32.5725 11.635 32.5508 11.6549C32.529 11.6748 32.5125 11.6997 32.5029 11.7275C32.2003 12.2518 31.8982 12.7766 31.5967 13.302L31.4787 13.5071L31.4775 13.5092C31.3372 13.7525 31.197 13.996 31.0597 14.2405C31.0205 14.3231 30.9865 14.4081 30.9583 14.495L31.0083 14.5264L31.0472 14.5511L31.1018 14.5856C31.3089 14.7167 31.5043 14.8402 31.7115 14.9559C32.2285 15.2511 32.7481 15.543 33.2678 15.8352L33.2702 15.8365C33.5033 15.9675 33.7364 16.0985 33.9693 16.2298C34.1194 16.3144 34.2704 16.3994 34.4217 16.4847L34.4242 16.486L34.4269 16.4876L34.4292 16.4889L34.431 16.4899C35.0359 16.8305 35.6486 17.1757 36.2538 17.5218C37.1405 18.0307 38.0273 18.5424 38.914 19.0567C38.9832 19.0967 39.0515 19.139 39.1198 19.1811C39.2515 19.2626 39.3835 19.3439 39.5225 19.4103C39.5717 19.4311 39.6138 19.4658 39.6434 19.5101C39.673 19.5545 39.6888 19.6066 39.6888 19.6598C39.6971 19.7457 39.6971 19.8333 39.6971 19.9192V23.1261C39.6959 23.2137 39.6856 23.3013 39.6735 23.404C39.6672 23.4584 39.6602 23.5171 39.6539 23.5822ZM4.91658 30.9139C4.91808 30.9383 4.91974 30.9639 4.9214 30.9907C4.99306 30.9707 5.06306 30.9453 5.13089 30.9147C5.21851 30.863 5.30514 30.809 5.39176 30.7549C5.50416 30.6851 5.61672 30.6148 5.73111 30.5496C6.00428 30.3939 6.27845 30.2399 6.55245 30.0861L6.55344 30.0856C6.93918 29.869 7.32524 29.6521 7.70798 29.431C8.10934 29.199 8.50904 28.9636 8.90873 28.7283C9.3086 28.4929 9.70913 28.2571 10.1105 28.025C10.5682 27.7613 11.0269 27.5004 11.4855 27.2395L11.4865 27.239C12.0189 26.9363 12.5512 26.6335 13.0816 26.3265C13.6492 25.9962 14.2147 25.6658 14.7803 25.3355C15.3461 25.0049 15.9121 24.6744 16.48 24.3438C17.1411 23.9598 17.8043 23.5793 18.4677 23.1987L18.4715 23.1965C18.823 22.9948 19.1747 22.7931 19.526 22.5908C20.3773 22.1029 21.2269 21.6139 22.0748 21.1236C22.1172 21.0926 22.1684 21.0757 22.2211 21.0757C22.2738 21.0757 22.325 21.0926 22.3674 21.1236C22.7934 21.3731 23.222 21.6183 23.6503 21.8632L23.6513 21.8637C23.9147 22.0144 24.178 22.165 24.4407 22.3166C24.8198 22.534 25.1971 22.7532 25.5743 22.9723L25.5753 22.973C25.9172 23.1716 26.2593 23.3702 26.6022 23.5673C27.0178 23.8069 27.4335 24.0431 27.849 24.2796C28.0985 24.4213 28.3479 24.5631 28.5973 24.7057L31.0381 26.1051L33.2278 27.3674C33.4973 27.5234 33.7665 27.6803 34.0358 27.8373L34.0385 27.8388L34.0395 27.8394C34.6447 28.1922 35.2504 28.5449 35.8581 28.8874C37.0164 29.5483 38.1769 30.2092 39.3396 30.8701C39.4236 30.9175 39.5114 30.9587 39.6061 31.0031C39.6502 31.0238 39.6963 31.0454 39.7436 31.0684C39.7616 31.0011 39.7744 30.9327 39.7819 30.8635V27.8498C39.786 27.7861 39.7704 27.7226 39.7372 27.6679C39.7037 27.6132 39.6544 27.5701 39.5957 27.5442C39.3089 27.3813 39.0212 27.2137 38.7333 27.046C38.4403 26.8755 38.1465 26.7045 37.8532 26.538C37.5641 26.3719 37.2735 26.2062 36.9825 26.0402C36.5524 25.7948 36.1211 25.5488 35.6918 25.3005C35.2002 25.0168 34.7142 24.7342 34.2267 24.4507C33.6607 24.1216 33.0926 23.7913 32.5112 23.4566C32.0169 23.1721 31.5212 22.8897 31.0254 22.6073C30.4359 22.2714 29.8461 21.9355 29.2591 21.5962C28.6908 21.2659 28.1241 20.9356 27.5574 20.6053C26.9902 20.2747 26.4229 19.9441 25.854 19.6135C25.2998 19.294 24.7435 18.9774 24.1874 18.6607L24.1862 18.66C23.6297 18.3433 23.0731 18.0266 22.5187 17.7069C22.4376 17.6527 22.3425 17.6226 22.2447 17.6203C22.1468 17.618 22.0504 17.6434 21.9667 17.6936C20.9226 18.2983 19.8796 18.9042 18.8377 19.5111C18.3841 19.7754 17.9317 20.0398 17.4793 20.304C16.8004 20.7007 16.1216 21.0972 15.4392 21.4937C14.9233 21.7885 14.4051 22.0813 13.8865 22.3742C13.1433 22.794 12.3994 23.2144 11.6601 23.6416C10.9536 24.0466 10.2521 24.4593 9.55001 24.8725L9.54902 24.8732L9.54719 24.8742L9.54586 24.875L9.54486 24.8755C9.12006 25.1255 8.69492 25.3756 8.26829 25.6243C7.23745 26.2241 6.20496 26.8222 5.16082 27.3988C5.07403 27.4386 5.00221 27.505 4.95615 27.5883C4.9101 27.6716 4.89214 27.7672 4.90478 27.8614V30.6487C4.90478 30.7308 4.9101 30.8143 4.91658 30.9139ZM27.0926 39.6004H24.1631C24.1322 39.1571 24.136 38.7195 24.1396 38.2835V38.2818C24.1413 38.0847 24.143 37.8871 24.1415 37.6905C24.1381 37.2675 24.1393 36.8424 24.1403 36.4214C24.141 36.2126 24.1415 36.0047 24.1415 35.7987C23.8804 35.6995 21.438 35.6648 20.7264 35.7392C20.639 35.8848 20.6044 36.0556 20.6283 36.2233V39.1081C20.6283 39.6203 20.6283 39.6203 20.1013 39.6203H18.013C17.614 39.6203 17.5973 39.6004 17.5973 39.194V27.9192C17.585 27.7985 17.6103 27.6767 17.6697 27.5706C17.7292 27.4645 17.82 27.3793 17.9299 27.3261C18.4745 27.0379 19.0164 26.7443 19.5569 26.4516L19.7022 26.3728C19.8221 26.3077 19.9407 26.2394 20.0589 26.1713L20.0599 26.1709C20.1541 26.1165 20.2491 26.062 20.344 26.0093C20.3789 25.9903 20.416 25.9747 20.4541 25.9587C20.4759 25.9495 20.498 25.9402 20.5203 25.93C20.6435 26.0456 20.637 26.1813 20.631 26.3115C20.6297 26.3394 20.6283 26.367 20.6283 26.3942V30.994C20.6283 31.2881 20.6283 31.436 20.7026 31.5103C20.778 31.5855 20.9293 31.5855 21.2335 31.5855H23.7108C23.7961 31.5855 23.8813 31.5804 23.9789 31.5744C24.0277 31.5716 24.08 31.5685 24.1365 31.5657V25.882C24.7407 26.1875 25.31 26.5048 25.8736 26.8187C26.2791 27.0447 26.6823 27.2692 27.0926 27.4863V39.6004ZM6.79686 8.57172L6.79436 8.57022C6.18983 8.20234 5.58064 7.83163 4.96297 7.45647C4.87651 7.81005 4.88482 23.1707 4.97627 23.4516C8.29273 21.5527 11.5886 19.657 14.864 17.7647C14.9271 16.6478 14.8989 13.9976 14.8157 13.73C14.767 13.7549 14.7178 13.7768 14.6689 13.7986C14.6011 13.8288 14.5344 13.8587 14.4716 13.8952C14.0784 14.1207 13.686 14.3479 13.2934 14.5751C12.9012 14.8023 12.5088 15.0294 12.1156 15.255C11.4577 15.6387 10.7985 16.0147 10.1391 16.3908L10.1378 16.3915C9.78112 16.5949 9.42448 16.7983 9.06801 17.003C8.67264 17.2272 8.27727 17.4549 7.88139 17.6829C7.41652 17.9506 6.95115 18.2185 6.48428 18.4817C6.38535 18.5191 6.28077 18.5397 6.17503 18.5429C6.16256 18.5168 6.15225 18.4984 6.14427 18.4844C6.13313 18.4647 6.12681 18.4537 6.12681 18.4421C6.12681 18.0746 6.12548 17.7073 6.12415 17.3399C6.12166 16.6056 6.119 15.8709 6.12681 15.1377C6.13479 15.0772 6.15508 15.019 6.18617 14.9665C6.21726 14.914 6.25866 14.8683 6.30804 14.832C6.59235 14.6288 6.89329 14.4454 7.19423 14.2653C7.79311 13.9071 8.39265 13.5497 8.9922 13.1924L8.99353 13.1915L8.99502 13.1907C9.82385 12.6966 10.6533 12.2022 11.4805 11.706C11.5295 11.6742 11.5621 11.623 11.5967 11.5688C11.6123 11.5441 11.6285 11.5188 11.6468 11.4945C11.1107 11.1703 10.5817 10.8544 10.0583 10.5419C9.4614 10.1855 8.87199 9.83356 8.28824 9.47879C7.80026 9.18222 7.31128 8.88467 6.81914 8.58527L6.81431 8.58235L6.79852 8.57267L6.79686 8.57172ZM4.92689 39.5466L4.92556 39.5348C4.9239 39.5196 4.92223 39.5051 4.92057 39.4911C4.91176 39.4134 4.90478 39.3524 4.90478 39.2915V35.8218C4.89447 35.7577 4.89896 35.6921 4.91808 35.6301C4.95682 35.5631 5.01468 35.509 5.08434 35.4748C5.15866 35.4586 5.23514 35.4558 5.31046 35.4666H14.5664C14.6325 35.4646 14.6969 35.4882 14.7461 35.5322C14.7953 35.5761 14.8256 35.6373 14.8307 35.7028C14.8412 35.7883 14.8452 35.8745 14.8423 35.9606V39.1362C14.8457 39.2006 14.8457 39.265 14.8423 39.3295C14.8224 39.5277 14.7808 39.5674 14.5797 39.5806H4.93138V39.5889C4.92988 39.5742 4.92838 39.5601 4.92689 39.5466ZM29.979 35.4963V39.579H39.4859C39.5097 39.5826 39.5342 39.5809 39.5573 39.5743C39.5804 39.5676 39.6018 39.556 39.6199 39.5403C39.6382 39.5246 39.6527 39.5051 39.6625 39.4833C39.6725 39.4613 39.6775 39.4377 39.6771 39.4137V35.8829C39.6771 35.5029 39.6439 35.4715 39.2731 35.4715H30.3115C30.2413 35.4715 30.1704 35.4785 30.0929 35.4859C30.0565 35.4895 30.0187 35.4932 29.979 35.4963ZM14.706 29.3897C14.7235 29.4814 14.7351 29.5741 14.7409 29.6673V31.9292C14.7409 32.215 14.7077 32.2497 14.4234 32.2514H10.5527C10.5113 32.2485 10.4703 32.2429 10.4297 32.2348C10.3732 32.1324 10.3998 32.0696 10.4929 32.02C10.733 31.8722 10.9719 31.7218 11.211 31.5711C11.3593 31.4778 11.5079 31.3843 11.6567 31.2914L14.4117 29.5549C14.4646 29.5222 14.5191 29.4925 14.5788 29.4601C14.6186 29.4384 14.6608 29.4155 14.706 29.3897ZM29.9823 29.3715V32.1968C30.3049 32.2778 34.0591 32.2728 34.3617 32.182C34.1565 31.9761 33.9277 31.8396 33.6968 31.702C33.5665 31.6243 33.4354 31.5462 33.3076 31.455C33.0831 31.2947 32.84 31.1525 32.6001 31.0122C32.4616 30.9311 32.3241 30.8506 32.192 30.7677C31.9688 30.6277 31.7469 30.4858 31.5251 30.3439C31.3882 30.2565 31.2516 30.1689 31.1146 30.082L29.9823 29.3715Z" fill="#FFE9CD"/>
</svg>
