<svg width="128" height="107" viewBox="0 0 128 107" fill="none" xmlns="http://www.w3.org/2000/svg">
<path fill-rule="evenodd" clip-rule="evenodd" d="M21.6658 81.5722H23.0049C22.981 81.2815 22.9861 80.9961 22.9912 80.7138C23.0008 80.1831 23.0102 79.6642 22.8258 79.1452C22.7093 78.73 22.5151 78.3413 22.2538 78.0005C21.6822 77.3162 20.885 77.1803 20.0899 77.0446L20.0212 77.033C19.42 76.9313 18.8316 77.0838 18.2626 77.2311L18.2089 77.2451C17.9105 77.3067 17.6279 77.43 17.3789 77.6079C17.1298 77.7855 16.9197 78.0138 16.7618 78.2779C16.4153 78.8804 16.2308 79.5644 16.2267 80.2619V86.8877C16.2267 86.9721 16.2261 87.0568 16.2256 87.1414C16.2217 87.755 16.2178 88.3705 16.4196 88.9627C16.6217 89.5315 16.8767 90.0538 17.4211 90.3941C18.0527 90.7905 18.7602 90.8977 19.4653 90.9677C20.1838 91.0169 20.9024 90.873 21.5487 90.5503C22.0235 90.3312 22.4027 89.943 22.6144 89.4593C22.8741 88.9146 23.0047 88.3157 22.9957 87.7107V84.3302C22.9957 84.2626 22.9886 84.195 22.9815 84.1285C22.9748 84.0644 22.9682 84.0015 22.9682 83.9409C22.4008 83.8383 19.6399 83.8639 19.3367 83.9665V85.1765H21.528C21.5698 85.3243 21.5974 85.4756 21.6107 85.6288C21.6075 86.183 21.5979 86.7483 21.5884 87.3018L21.5884 87.3034C21.5841 87.555 21.5798 87.8042 21.5762 88.0488C21.5647 88.8321 20.7332 89.5688 20.0189 89.5572C19.7048 89.5705 19.3902 89.5628 19.0772 89.5339C18.5787 89.4592 18.0964 89.2821 17.8896 88.7808C17.74 88.4337 17.6618 88.0593 17.6599 87.6804V80.3249C17.673 80.0386 17.7208 79.7553 17.8024 79.4809C17.97 78.8118 18.4478 78.5787 19.0243 78.4784C19.3526 78.4472 19.6825 78.4372 20.012 78.4481C20.77 78.4155 21.5808 79.2175 21.5808 79.9798C21.5773 80.2605 21.5913 80.5412 21.6053 80.821C21.6095 80.9059 21.6138 80.9912 21.6176 81.0756C21.6243 81.1929 21.6371 81.309 21.6507 81.4321C21.6557 81.4778 21.6608 81.5241 21.6658 81.5722ZM100.235 82.6752C100.229 81.7916 100.223 80.907 100.242 80.0241C100.267 79.1639 100.522 78.3689 101.202 77.7744C101.56 77.4855 101.979 77.2829 102.426 77.1822C102.96 77.0309 103.516 76.9787 104.068 77.0283C104.754 77.0605 105.421 77.2673 106.007 77.6298C106.531 77.9795 106.792 78.5041 106.992 79.0729C107.196 79.6423 107.192 80.2351 107.188 80.8261C107.188 80.8723 107.188 80.9187 107.188 80.9649C107.188 80.9956 107.188 81.0264 107.188 81.0569V87.6408C107.191 88.3817 106.99 89.1086 106.606 89.739C106.375 90.1074 106.037 90.3941 105.639 90.5597C104.906 90.9101 104.091 91.0488 103.285 90.9607C102.642 90.8814 101.99 90.7765 101.427 90.3801C100.935 90.0188 100.577 89.4998 100.412 88.9067C100.23 88.3572 100.232 87.8026 100.233 87.2456C100.233 87.202 100.233 87.1584 100.233 87.1148C100.233 87.0901 100.233 87.0654 100.233 87.0404V87.0073L100.232 86.967V83.9945L100.242 83.9991C100.242 83.5585 100.239 83.1174 100.235 82.6763V82.6752ZM101.668 83.9991V87.8366C101.66 88.2157 101.762 88.5887 101.962 88.909C102.421 89.6248 103.57 89.9955 104.346 89.6947C104.84 89.5012 105.293 89.2284 105.495 88.6992C105.656 88.3085 105.742 87.8898 105.747 87.4659V81.1152C105.759 80.5998 105.715 80.0848 105.616 79.5788C105.56 79.2832 105.41 79.0144 105.188 78.8144C104.966 78.6141 104.686 78.4936 104.39 78.4714C103.927 78.4376 103.461 78.4376 102.998 78.4714C102.767 78.4808 102.542 78.5533 102.348 78.6813C102.154 78.8095 101.998 78.9881 101.895 79.1988C101.735 79.5257 101.656 79.8875 101.666 80.2526C101.674 81.1159 101.672 81.9804 101.67 82.8453C101.669 83.2298 101.668 83.6145 101.668 83.9991ZM60.5093 84.3325H65.6865C65.7104 84.1899 65.7242 84.0458 65.7279 83.9012L65.73 83.738V83.7345C65.743 82.6619 65.7564 81.5911 65.7279 80.5184C65.7364 79.894 65.5928 79.2774 65.3099 78.7232C64.6805 77.5995 63.6652 77.1216 62.441 77.0306C62.0089 76.9966 61.5746 77.0472 61.1616 77.1798C60.8485 77.2715 60.5495 77.4065 60.2727 77.5808C59.8941 77.8343 59.5827 78.1779 59.3656 78.5819C59.1486 78.986 59.0326 79.438 59.0277 79.8982C58.9829 80.9973 58.9871 82.1005 58.991 83.2025V83.2048C58.9921 83.5186 58.9933 83.8325 58.9933 84.146C58.9917 85.5169 58.9995 86.8877 59.0163 88.2586C59.0422 88.8489 59.2326 89.4196 59.5652 89.9045C60.1119 90.7905 61.0031 91.0516 61.9494 91.1775C62.3978 91.222 62.8503 91.1656 63.2748 91.0119C63.5851 90.9243 63.8864 90.8073 64.1752 90.6622C64.7816 90.3309 65.2426 89.7798 65.466 89.1189C65.6454 88.6384 65.679 88.1579 65.7127 87.6722C65.7196 87.5736 65.7265 87.4741 65.7348 87.375C65.7509 87.1535 65.6636 87.0416 65.4086 87.0416H64.6437C64.3061 87.0509 64.267 87.0952 64.251 87.4473C64.251 87.4829 64.2526 87.5186 64.254 87.5543C64.2572 87.6254 64.2602 87.6967 64.251 87.7667C64.2445 88.0553 64.202 88.342 64.1246 88.6199C63.9903 88.9734 63.7601 89.2809 63.4604 89.5066C63.1606 89.7325 62.8039 89.8672 62.4318 89.8952C62.1844 89.9199 61.9347 89.8927 61.6984 89.8146C61.462 89.7365 61.244 89.6096 61.0585 89.4418C60.8729 89.2739 60.7236 89.069 60.62 88.8396C60.5164 88.6102 60.4606 88.3616 60.4564 88.1094V84.7732C60.4654 84.6254 60.4831 84.4782 60.5093 84.3325ZM63.8398 83.2065H62.3101C62.1245 83.2065 61.9384 83.2072 61.7526 83.2079C61.4737 83.209 61.1951 83.2102 60.9181 83.2088C60.5162 83.2041 60.4587 83.1552 60.4587 82.7705C60.4449 81.8729 60.4404 80.973 60.4587 80.0754C60.4567 79.7868 60.5256 79.5021 60.659 79.2473C60.7927 78.9925 60.9866 78.7757 61.2236 78.616C61.4352 78.4602 61.6796 78.3565 61.9375 78.3127C62.1954 78.2691 62.4596 78.2866 62.7097 78.3642C63.1691 78.4971 63.578 78.6649 63.8582 79.0753C64.0631 79.3152 64.1903 79.6129 64.2234 79.9286C64.2273 80.2018 64.2319 80.4748 64.2367 80.748V80.7539C64.2484 81.4367 64.2602 82.121 64.2602 82.8055C64.2602 83.1179 64.1637 83.2065 63.8398 83.2065ZM1.60209 77.1985V83.2601C1.7621 83.2818 1.9231 83.2948 2.08445 83.2997H4.742C5.23124 83.2997 5.27029 83.2531 5.27029 82.7379V77.2381H6.71506C6.82991 77.6508 6.8322 90.3662 6.71506 90.7765C6.64783 90.7926 6.5795 90.8035 6.51063 90.8091H5.30015C5.2959 90.7226 5.29037 90.6429 5.28511 90.5669C5.27617 90.438 5.26799 90.32 5.26799 90.1983V85.0343C5.27201 84.9886 5.26597 84.9424 5.25033 84.8995C5.23466 84.8564 5.20979 84.8175 5.17749 84.7853C5.14518 84.7531 5.10627 84.7286 5.06352 84.7137C5.02077 84.6988 4.9753 84.6937 4.93034 84.6986H2.13269C2.02483 84.6986 1.91591 84.7116 1.79072 84.7263C1.73196 84.7333 1.6696 84.7408 1.60209 84.7475V90.8091H0.260686C0.226297 90.8138 0.191295 90.8108 0.158308 90.7998C0.125321 90.7888 0.0952067 90.7704 0.070228 90.7459C0.0452494 90.7215 0.0260553 90.6916 0.0140879 90.6585C0.0021205 90.6254 -0.00230915 90.59 0.00113172 90.555V77.6578C0.0149133 77.2428 0.0447734 77.2078 0.435253 77.1915C0.676049 77.1815 0.900249 77.1864 1.13748 77.1917H1.14071C1.28717 77.195 1.43865 77.1985 1.60209 77.1985ZM26.7903 90.7672C27.3193 90.8212 27.8517 90.8306 28.3821 90.7951L28.3844 84.8221C28.7679 84.6729 31.5886 84.6543 32.0732 84.7988V90.7905H33.6627V77.2381H32.0824V83.1972C31.6575 83.3394 28.8323 83.3394 28.3729 83.1972V77.2148C27.8457 77.1712 27.3158 77.1789 26.7903 77.2381V90.7672ZM47.782 77.2754V90.7975C47.9005 90.7975 48.0174 90.7984 48.1325 90.7993C48.4724 90.8019 48.799 90.8045 49.1234 90.7835C49.1992 90.7835 49.2979 90.6459 49.3301 90.5503C49.3487 90.4298 49.3487 90.3072 49.3301 90.1866V80.8145C49.337 80.645 49.3531 80.4762 49.3783 80.3086H49.484C49.4989 80.3543 49.5138 80.4004 49.5285 80.4466C49.5614 80.5492 49.5947 80.6527 49.631 80.7539C49.7304 81.0283 49.831 81.3008 49.9319 81.5733C50.0844 81.9862 50.2374 82.4008 50.3867 82.8218C50.4611 83.0291 50.5321 83.2363 50.6031 83.4433C50.6915 83.7026 50.7801 83.9616 50.8759 84.2206C50.968 84.4722 51.0634 84.7177 51.1589 84.9639C51.3087 85.35 51.4591 85.7377 51.5995 86.1533C51.7143 86.4935 51.8292 86.8362 51.9438 87.1787C52.0588 87.5216 52.1737 87.8643 52.2885 88.205C52.5435 88.9417 52.8053 89.6761 53.0856 90.4011C53.143 90.5503 53.2854 90.7718 53.4048 90.7835C53.7678 90.8138 54.1321 90.8089 54.5085 90.8038H54.5115C54.6558 90.8017 54.8021 90.7998 54.9507 90.7998C54.9553 90.7299 54.9606 90.6664 54.9654 90.6075C54.9748 90.4916 54.9828 90.3927 54.9828 90.2939V77.7231C54.9828 77.6102 54.9693 77.4976 54.9557 77.3841C54.9498 77.3356 54.944 77.2869 54.9392 77.2381H53.4967V85.9785C53.5013 86.1457 53.4967 86.3131 53.4829 86.4797C53.4563 86.5763 53.4168 86.6688 53.3658 86.7548L49.9365 77.2148H48.0116C47.9329 77.2255 47.8559 77.2458 47.782 77.2754ZM86.8941 81.5652H88.2723C88.2599 81.3174 88.261 81.0761 88.2622 80.839V80.8378C88.2649 80.2811 88.2677 79.7462 88.0954 79.1988C87.9431 78.5549 87.5743 77.9853 87.0526 77.5878C86.5197 77.2055 85.9019 77.1006 85.2863 77.0283C84.5258 76.9598 83.7604 77.0889 83.0629 77.4037C82.7941 77.5123 82.5506 77.6769 82.3485 77.887C82.1464 78.097 81.9897 78.3476 81.8891 78.623C81.6381 79.2886 81.5143 79.9969 81.5239 80.7096V87.2911C81.5168 87.9578 81.628 88.6204 81.8524 89.2471C81.9569 89.5511 82.1243 89.8288 82.3435 90.0617C82.5623 90.2946 82.8281 90.4771 83.1226 90.597C83.3314 90.6872 83.545 90.7278 83.7568 90.7679C83.9061 90.7963 84.0544 90.8245 84.1998 90.8697C84.99 91.1122 85.7434 90.9187 86.4761 90.6622C86.8636 90.4874 87.235 90.2773 87.5855 90.0351C87.6482 90.1069 87.6877 90.203 87.7291 90.3039C87.8168 90.5172 87.913 90.7518 88.2562 90.8231C88.2555 90.1561 88.2578 89.4926 88.2603 88.8309V88.8286C88.2661 87.1808 88.2718 85.5451 88.2309 83.8989H84.7855C84.7339 84.3199 84.7339 84.7461 84.7855 85.1672H86.7678C86.7995 85.2474 86.822 85.3311 86.8344 85.4166C86.8344 85.6682 86.8376 85.9202 86.8411 86.1722C86.8498 86.8353 86.8585 87.4988 86.8068 88.156C86.7653 88.5099 86.6061 88.8386 86.3555 89.0883C86.1049 89.338 85.7781 89.4935 85.4287 89.5292C85.0713 89.5793 84.7088 89.5793 84.3514 89.5292C83.8048 89.4453 83.3063 89.2121 83.1455 88.6153C83.0341 88.2057 82.9746 87.7835 82.9687 87.3587V81.0966C82.9675 80.6114 83.0068 80.1272 83.0858 79.6488C83.1357 79.3282 83.2937 79.0354 83.533 78.8202C83.7724 78.6048 84.0779 78.4808 84.3974 78.4691C84.6406 78.4467 84.8852 78.4498 85.1299 78.453C85.2158 78.454 85.3014 78.4551 85.3873 78.4551C86.0535 78.4505 86.8114 79.1988 86.8367 79.9122C86.8551 80.3389 86.8551 80.7655 86.8551 81.1922C86.8567 81.2745 86.8675 81.3568 86.8792 81.4472L86.8813 81.4621L86.8852 81.4927C86.8882 81.5162 86.8911 81.5402 86.8941 81.5652ZM117.416 90.8045C117.024 90.7842 116.965 90.51 116.902 90.2193C116.885 90.1437 116.869 90.0668 116.846 89.9931C116.725 90.0528 116.609 90.1204 116.497 90.196C116.107 90.5165 115.649 90.7429 115.16 90.8581C114.71 90.9725 114.245 91.0136 113.782 90.9793C112.696 90.8791 111.765 90.4711 111.255 89.415C111.101 89.0911 110.993 88.7465 110.936 88.3915C110.883 88.0147 110.861 87.6342 110.87 87.2538V77.793C110.87 77.6734 110.88 77.555 110.891 77.4284C110.894 77.3887 110.898 77.3479 110.901 77.3064C110.903 77.2817 110.904 77.2566 110.906 77.2311H112.367C112.37 77.2731 112.373 77.3148 112.376 77.3566L112.379 77.3967L112.383 77.4407C112.394 77.5645 112.404 77.6869 112.404 77.8093V87.4543C112.387 87.9714 112.512 88.4831 112.764 88.9324C112.868 89.106 113.011 89.2522 113.181 89.3588C113.351 89.4653 113.544 89.5294 113.743 89.5455C113.889 89.563 114.036 89.5604 114.184 89.5576C114.292 89.5555 114.4 89.5537 114.508 89.5595C115.153 89.6015 115.852 88.8951 115.875 88.2539C115.879 88.1115 115.888 87.969 115.897 87.8266C115.91 87.6193 115.923 87.4121 115.923 87.2048V77.8373C115.923 77.5163 115.923 77.3573 116.001 77.278C116.078 77.2004 116.231 77.1997 116.534 77.1985H117.402C117.526 77.6601 117.526 90.3055 117.416 90.8045ZM123.052 86.594C123.052 86.7208 123.045 86.8271 123.038 86.9239C123.032 87.0048 123.027 87.0791 123.027 87.1535V90.2146C123.027 90.5084 123.027 90.6571 122.954 90.7322C122.879 90.8091 122.727 90.8091 122.421 90.8091H121.835C121.64 90.8091 121.536 90.7019 121.527 90.5037V77.9375C121.527 77.1715 121.595 77.1747 121.998 77.1936C122.077 77.1973 122.169 77.2015 122.276 77.2008C122.551 77.2008 122.825 77.1992 123.099 77.1978H123.1C123.831 77.1936 124.563 77.1894 125.292 77.2148C125.852 77.2295 126.391 77.4351 126.821 77.7984C127.252 78.1616 127.55 78.6614 127.667 79.2175C127.786 79.7528 127.838 80.3009 127.823 80.8494C127.823 81.1318 127.827 81.4143 127.83 81.6971V81.7006C127.838 82.407 127.847 83.1139 127.803 83.8173C127.745 84.7289 127.433 85.5518 126.61 86.0764C126.334 86.2473 126.033 86.3741 125.719 86.4518C125.156 86.6056 124.59 86.6035 124.023 86.6014C123.859 86.6007 123.696 86.6 123.533 86.6033L123.052 86.594ZM123.052 85.1532H125.225C125.328 85.1413 125.427 85.108 125.517 85.0553C126.128 84.7778 126.328 84.2136 126.351 83.6168C126.392 82.4628 126.383 81.3041 126.351 80.1477C126.329 79.8022 126.233 79.466 126.071 79.1615C125.809 78.644 125.283 78.5577 124.777 78.5111C124.424 78.4805 124.067 78.4922 123.711 78.5038C123.669 78.5052 123.626 78.5066 123.583 78.5078C123.547 78.509 123.511 78.5101 123.475 78.5111C123.094 78.5111 123.048 78.5694 123.032 78.9773V84.6356C123.029 84.7361 123.034 84.8457 123.041 84.9774C123.044 85.0352 123.047 85.0972 123.05 85.1648L123.052 85.1532ZM73.6638 77.4223H69.3318C69.327 77.4867 69.3212 77.5487 69.3155 77.6093C69.3021 77.7529 69.2895 77.8893 69.2927 78.0285V81.8683C69.2971 82.7106 69.3042 83.5527 69.3111 84.3952V84.4085C69.3226 85.7859 69.3341 87.1645 69.3341 88.543C69.3403 89.1035 69.4875 89.6532 69.7613 90.14C69.9145 90.4522 70.1481 90.7168 70.4371 90.9056C70.7262 91.0942 71.06 91.2003 71.4036 91.2124C71.8076 91.2421 72.2133 91.2365 72.6164 91.1961C72.9118 91.1658 73.195 91.0618 73.441 90.8935C73.6872 90.7249 73.8884 90.4974 74.0267 90.2309C74.2729 89.743 74.4133 89.2072 74.4379 88.6596C74.4829 88.0604 74.4728 87.4615 74.4627 86.8633V86.8581C74.4583 86.6035 74.4539 86.3492 74.4539 86.0951C74.4539 86.0806 74.4413 86.0659 74.4225 86.044C74.411 86.0307 74.3974 86.0149 74.3827 85.9948C73.9394 85.9743 73.4957 85.9783 73.0528 86.0065V86.559C73.0521 86.7418 73.0528 86.9248 73.0535 87.1078C73.0556 87.6109 73.0574 88.1143 73.0321 88.6153C73.0195 88.9188 72.9409 89.2156 72.8024 89.4849C72.5842 89.8975 72.1915 89.9908 71.7321 89.9908C71.4939 89.9803 71.2669 89.8852 71.091 89.722C70.9151 89.5586 70.8014 89.3378 70.7697 89.0979C70.7568 88.8682 70.7384 88.6386 70.72 88.4087C70.6863 87.9858 70.6525 87.5627 70.6525 87.1395C70.6204 85.3402 70.6204 83.5429 70.6204 81.7459V79.0007C70.6227 78.5903 70.7283 78.4901 71.1326 78.4901H73.1585C73.2322 78.4889 73.3059 78.4831 73.3817 78.4768C73.4713 78.4696 73.5643 78.4621 73.6638 78.4621V77.4223ZM98.1124 80.9474H96.7204C96.6997 80.7725 96.6791 80.5977 96.6607 80.4251C96.6467 80.3004 96.6352 80.1752 96.6237 80.05L96.6235 80.0486C96.5975 79.7651 96.5716 79.4812 96.516 79.2035C96.4783 79.051 96.4101 78.9081 96.3157 78.7836C96.2211 78.6591 96.1025 78.5556 95.967 78.4796C95.8315 78.4034 95.6822 78.3565 95.5281 78.3413C95.374 78.3264 95.2184 78.3437 95.0712 78.3922C94.5912 78.5367 94.3661 78.8584 94.1984 79.3131C94.0737 79.7017 94.0199 80.1102 94.0399 80.5184V90.9537H92.432C92.4304 90.9369 92.4286 90.9203 92.4268 90.9035L92.4245 90.8849L92.4226 90.8695L92.4212 90.8581L92.4185 90.8362C92.4166 90.8203 92.4146 90.8045 92.4125 90.7888C92.399 90.6816 92.3854 90.5753 92.3838 90.4687C92.3654 86.252 92.3477 82.0345 92.331 77.8163C92.331 77.6921 92.3443 77.5687 92.3585 77.4354C92.3666 77.361 92.3748 77.2834 92.3815 77.2008C92.9491 77.2321 93.1149 77.6018 93.2842 77.9797C93.3554 78.1387 93.4273 78.2992 93.53 78.4365C93.5931 78.3115 93.6655 78.1917 93.7459 78.0774C93.926 77.8191 94.1612 77.6053 94.4341 77.4524C94.7069 77.2995 95.0103 77.2109 95.3216 77.1938C95.5115 77.1845 95.7013 77.1875 95.8912 77.1908C95.9861 77.1922 96.0812 77.1938 96.176 77.1938C96.4907 77.1922 96.7994 77.2822 97.0656 77.4526C97.3316 77.6233 97.5443 77.8676 97.6782 78.1567C98.096 79.0214 98.2472 79.9941 98.1124 80.9474ZM12.377 77.2381H11.0379C11.033 77.2848 11.0276 77.3295 11.0223 77.3729C11.008 77.4916 10.9949 77.6004 10.9965 77.7114V90.3149C11.0059 90.4715 11.0266 90.6275 11.0586 90.7811H12.3885C12.5148 90.3335 12.5056 77.6345 12.377 77.2381ZM77.5387 102.634C77.5387 102.827 77.5364 103.02 77.5341 103.214C77.5295 103.602 77.5249 103.989 77.5387 104.368C77.5654 104.809 77.4965 105.25 77.3366 105.66C77.2452 105.925 77.0839 106.16 76.8708 106.339C76.6574 106.518 76.3999 106.635 76.1261 106.677C75.7694 106.722 75.4092 106.729 75.0511 106.697C74.7091 106.677 74.3841 106.539 74.1294 106.307C73.8749 106.074 73.7058 105.761 73.65 105.418C73.5715 105.002 73.5269 104.581 73.5168 104.159C73.503 103.51 73.5076 102.861 73.5122 102.212V102.205C73.5145 101.883 73.5168 101.56 73.5168 101.237C73.5012 100.768 73.543 100.298 73.6408 99.8386C73.7316 99.4602 73.9493 99.1254 74.2564 98.892C74.895 98.3698 76.2203 98.4094 76.8474 98.9387C77.0665 99.1315 77.2417 99.3707 77.3607 99.639C77.4797 99.9076 77.5396 100.199 77.5364 100.494C77.561 100.969 77.5527 101.446 77.5445 101.923C77.5406 102.161 77.5364 102.4 77.5364 102.639L77.5387 102.634ZM74.4792 102.597V104.928C74.4728 105.094 74.5026 105.258 74.5665 105.411C74.7962 105.865 75.2556 106.033 75.8321 105.896C76.0464 105.853 76.2382 105.733 76.3707 105.556C76.5033 105.38 76.5674 105.161 76.551 104.94V100.333C76.551 99.694 76.1697 99.3397 75.5381 99.3327C74.849 99.3327 74.4907 99.6544 74.4792 100.321C74.4716 100.825 74.4742 101.33 74.4767 101.836C74.4778 102.09 74.4792 102.343 74.4792 102.597ZM89.1153 105.177V102.669H89.113V100.067C89.0932 99.7201 88.9561 99.3907 88.7248 99.1345C88.1643 98.4048 86.6461 98.3092 85.9019 98.9014C85.6862 99.0627 85.5114 99.2737 85.3917 99.5166C85.2718 99.7598 85.2105 100.028 85.2128 100.3V104.681C85.1985 105.028 85.2571 105.375 85.385 105.697C85.4806 105.959 85.6446 106.189 85.8596 106.362C86.0746 106.535 86.3323 106.646 86.6047 106.681C86.9621 106.716 87.3216 106.721 87.6797 106.697C88.355 106.681 89.1153 105.921 89.1153 105.177ZM88.2702 101.92C88.2688 102.154 88.2677 102.387 88.2677 102.62H88.2585C88.2585 102.698 88.2583 102.776 88.2578 102.854C88.2576 102.917 88.2571 102.98 88.2569 103.043C88.2542 103.526 88.2512 104.006 88.2815 104.483C88.2838 104.815 88.2213 105.145 88.0977 105.453C87.9783 105.795 87.682 105.865 87.3857 105.919C86.6897 106.045 86.29 105.753 86.1913 105.054C86.1508 104.784 86.1286 104.511 86.1247 104.238V101.272C86.1292 100.892 86.1614 100.515 86.2028 100.137C86.206 100.027 86.2308 99.9192 86.2753 99.8195C86.3201 99.7194 86.384 99.6294 86.4635 99.5548C86.5427 99.4802 86.6357 99.4224 86.7375 99.3847C86.839 99.3469 86.947 99.3301 87.0549 99.335C87.0825 99.3343 87.1103 99.3334 87.1378 99.3324C87.3905 99.3236 87.6418 99.3149 87.8634 99.5145C87.9987 99.6427 88.1049 99.7992 88.1747 99.9731C88.2445 100.147 88.2762 100.334 88.2677 100.522C88.2753 100.988 88.2728 101.454 88.2702 101.92ZM39.6554 104.012V105.033C39.6715 105.758 40.2044 105.998 40.7878 105.935C40.944 105.91 41.0931 105.852 41.2249 105.764C41.3567 105.675 41.4684 105.559 41.552 105.423C41.6358 105.287 41.6896 105.134 41.7098 104.975C41.7302 104.816 41.7164 104.655 41.6698 104.501C41.5543 104.096 41.3204 103.736 40.9991 103.469C40.457 103.033 39.9333 102.571 39.4211 102.098C39.2277 101.932 39.0734 101.724 38.9695 101.49C38.8657 101.255 38.8152 101 38.8216 100.743C38.8122 100.351 38.8524 99.9593 38.9411 99.5775C39.015 99.3466 39.1448 99.138 39.3184 98.9711C39.4923 98.8041 39.7043 98.6841 39.9356 98.6216C40.5719 98.4211 41.6836 98.4304 42.1889 99.1438C42.3398 99.3257 42.451 99.5378 42.5151 99.7663C42.572 100.158 42.5913 100.553 42.5725 100.948C42.5725 101.181 42.46 101.221 42.0993 101.219C41.8903 101.219 41.7433 101.167 41.7341 100.925C41.7307 100.837 41.7298 100.748 41.7288 100.659C41.7272 100.504 41.7259 100.348 41.7112 100.195C41.6606 99.8386 41.5113 99.4959 41.1507 99.3956C40.7901 99.2954 40.3537 99.2254 40.0137 99.5681C39.8612 99.7537 39.7583 99.9759 39.7144 100.213C39.6706 100.451 39.6876 100.696 39.7634 100.925C39.9464 101.387 40.2595 101.785 40.6638 102.067C41.0588 102.359 41.4424 102.667 41.8122 102.981C42.2137 103.338 42.4848 103.821 42.5817 104.354C42.6784 104.886 42.595 105.436 42.3451 105.914C42.2408 106.123 42.0872 106.303 41.8981 106.437C41.7089 106.571 41.4902 106.656 41.261 106.684C40.9026 106.718 40.542 106.718 40.1837 106.684C39.8483 106.653 39.5327 106.509 39.2874 106.275C39.0421 106.041 38.8813 105.73 38.8308 105.392C38.7653 105.05 38.7217 104.704 38.6999 104.357C38.6861 104.012 38.7435 103.974 39.095 103.967C39.1822 103.971 39.2697 103.979 39.3694 103.988C39.4533 103.996 39.5463 104.004 39.6554 104.012ZM60.1096 102.909C60.1149 102.861 60.1206 102.811 60.1257 102.757C60.1748 102.754 60.2221 102.75 60.2681 102.746C60.396 102.734 60.5141 102.724 60.6356 102.727H62.7028C62.7729 102.727 62.8429 102.72 62.9142 102.713C62.9877 102.706 63.0623 102.699 63.1393 102.699C63.1393 102.454 63.1415 102.214 63.1438 101.977V101.976C63.1494 101.394 63.1549 100.832 63.1255 100.272C63.0871 99.974 62.9844 99.6882 62.8246 99.4352C62.5995 99.0249 62.2113 98.8244 61.7749 98.6682C61.4873 98.5631 61.1793 98.5295 60.8763 98.5701C60.5736 98.6106 60.2846 98.7242 60.0338 98.9014C59.4871 99.2394 59.3034 99.8083 59.2896 100.405C59.2574 101.865 59.2574 103.326 59.2896 104.788C59.3167 105.145 59.4159 105.493 59.5813 105.809C59.7673 106.201 60.1188 106.387 60.5368 106.534C61.1317 106.746 61.6554 106.593 62.1791 106.376C62.8682 106.091 63.3069 105.047 63.0979 104.347C62.9854 104.287 62.8597 104.256 62.7322 104.258C62.605 104.26 62.4803 104.295 62.3698 104.359C62.3526 104.448 62.3411 104.537 62.3353 104.627C62.3461 104.813 62.3137 104.999 62.2411 105.17C62.1683 105.341 62.0574 105.492 61.9166 105.612C61.776 105.732 61.6097 105.816 61.4313 105.859C61.2525 105.902 61.0667 105.902 60.8883 105.858C60.769 105.844 60.6551 105.801 60.5557 105.733C60.4562 105.664 60.3742 105.573 60.3163 105.467C60.1702 105.22 60.091 104.938 60.0866 104.651C60.0988 104.327 60.0947 104.002 60.0908 103.676C60.0887 103.514 60.0866 103.351 60.0866 103.189C60.0882 103.1 60.0983 103.01 60.1096 102.909ZM62.3215 101.986C61.9586 102.105 60.6287 102.121 60.0981 102.009C60.0981 101.835 60.0914 101.662 60.085 101.489C60.0694 101.074 60.054 100.663 60.1303 100.268C60.2382 99.6264 60.4518 99.321 61.157 99.3117C61.8622 99.3024 62.232 99.7197 62.3055 100.272C62.3475 100.842 62.353 101.415 62.3215 101.986ZM71.569 105.854V106.632C71.4289 106.655 71.2878 106.67 71.1464 106.679H68.2224C67.763 106.679 67.7469 106.649 67.7446 106.178C67.7446 105.033 68.2637 104.138 69.0447 103.364C69.2059 103.203 69.361 103.035 69.516 102.867C69.683 102.686 69.8504 102.505 70.0255 102.333C70.4642 101.9 70.6112 101.331 70.7444 100.762C70.8333 100.383 70.6661 100.032 70.5096 99.7033L70.494 99.6707C70.4456 99.5754 70.373 99.4949 70.2839 99.4376C70.1945 99.3802 70.0918 99.348 69.9864 99.3443L69.9517 99.342C69.5245 99.3145 69.1 99.287 68.8517 99.7546C68.786 99.8684 68.7408 99.9931 68.7185 100.123C68.7029 100.266 68.7013 100.406 68.6997 100.545C68.6987 100.631 68.6976 100.718 68.6932 100.806C68.6772 101.167 68.6037 101.228 68.2086 101.226C67.8135 101.223 67.7492 101.163 67.7492 100.827C67.763 100.093 67.825 99.3653 68.4819 98.8827C68.7502 98.6633 69.0816 98.5391 69.426 98.5283H69.473L69.5194 98.5281C69.935 98.5269 70.342 98.5258 70.7352 98.7405C70.9619 98.8503 71.1583 99.0156 71.3067 99.2215C71.4551 99.4275 71.5506 99.6674 71.5851 99.9202C71.6402 100.343 71.6402 100.772 71.5851 101.195C71.5242 101.616 71.3421 102.008 71.0614 102.324L70.9169 102.492C70.4343 103.054 69.9506 103.618 69.4535 104.159C69.1689 104.484 68.9413 104.856 68.7805 105.259C68.735 105.454 68.7164 105.654 68.7254 105.854H71.569ZM56.5792 101.216H57.4452C57.4468 101.114 57.45 101.014 57.4532 100.914C57.4587 100.743 57.4642 100.573 57.4612 100.405C57.4507 100.223 57.4277 100.043 57.3923 99.8642C57.351 99.6287 57.2568 99.4061 57.1169 99.2138C56.9773 99.0212 56.7956 98.8641 56.5861 98.7545C56.2071 98.5171 55.8104 98.519 55.3931 98.5211C55.3554 98.5211 55.3173 98.5213 55.2791 98.5213C54.5235 98.526 53.6713 99.1974 53.6713 100.072C53.6701 100.676 53.6655 101.279 53.661 101.883C53.6559 102.573 53.6506 103.263 53.6506 103.953C53.6506 104.41 53.6552 104.867 53.6874 105.322C53.7276 105.66 53.8753 105.975 54.1077 106.22C54.3402 106.464 54.645 106.626 54.9759 106.679C55.3644 106.704 55.7542 106.704 56.1428 106.679C56.57 106.66 57.2315 106.147 57.3648 105.562C57.4392 105.19 57.4768 104.811 57.4773 104.431C57.498 103.723 57.4199 103.671 56.7308 103.772C56.6754 103.79 56.6231 103.816 56.5746 103.849V105.11C56.5728 105.256 56.5317 105.398 56.4554 105.521C56.3794 105.644 56.2712 105.744 56.1428 105.809C55.9788 105.909 55.7918 105.963 55.6007 105.965C55.4096 105.967 55.2215 105.917 55.0554 105.821C54.8894 105.725 54.7515 105.586 54.6562 105.418C54.5607 105.25 54.5108 105.059 54.512 104.865C54.5044 103.881 54.5069 102.898 54.5094 101.913C54.5106 101.421 54.512 100.928 54.512 100.435C54.512 99.7989 54.8933 99.2557 55.6604 99.3327C56.2094 99.3839 56.5562 99.694 56.5792 100.24V101.216ZM80.4903 105.805C81.014 105.873 81.5315 105.866 82.0488 105.859C82.4684 105.853 82.888 105.847 83.3109 105.882V106.649H79.6519C79.5485 105.716 79.5899 104.849 80.233 104.121L81.308 102.916C81.3836 102.831 81.4612 102.747 81.5388 102.662C81.7157 102.47 81.8937 102.277 82.0499 102.07C82.2614 101.793 82.4105 101.472 82.4863 101.13C82.5621 100.787 82.5628 100.433 82.4886 100.09C82.459 99.8789 82.3561 99.6852 82.1981 99.5441C82.04 99.4031 81.8377 99.3238 81.6273 99.321C80.8486 99.2604 80.4788 99.7756 80.4512 100.466C80.4512 100.618 80.4443 100.77 80.437 100.932C80.4331 101.019 80.4292 101.108 80.426 101.202H79.7185C79.4681 100.335 79.6266 99.356 80.2284 98.927C80.5169 98.6862 80.875 98.547 81.2483 98.5307C81.3057 98.5307 81.3631 98.53 81.4205 98.529C81.7936 98.5239 82.1615 98.519 82.5139 98.7312C82.7178 98.8337 82.8979 98.979 83.0426 99.1573C83.1871 99.3359 83.2925 99.5434 83.3523 99.7663C83.4724 100.111 83.5156 100.478 83.4786 100.841C83.3644 101.538 83.0532 102.186 82.5828 102.706C82.3841 102.916 82.1877 103.129 81.9913 103.341C81.7949 103.554 81.5986 103.767 81.3999 103.977C80.9014 104.464 80.5808 105.108 80.4903 105.805ZM48.076 106.439H48.7903C48.796 106.374 48.8029 106.311 48.8098 106.25C48.8252 106.112 48.8401 105.978 48.8385 105.847V101.69C48.8431 101.188 48.8661 100.685 48.9166 100.186C48.9428 100.01 49.0232 99.8465 49.1463 99.7197C49.5483 99.3 50.4257 99.5098 50.6347 100.044C50.7383 100.311 50.7877 100.598 50.7794 100.885V105.909C50.7794 105.997 50.7847 106.086 50.7898 106.173C50.7951 106.261 50.8001 106.348 50.8001 106.434H51.5512C51.5707 106.383 51.5848 106.33 51.5926 106.276C51.593 105.839 51.5942 105.403 51.5956 104.967V104.966C51.5997 103.438 51.6038 101.91 51.5788 100.384C51.5613 99.9269 51.3819 99.4914 51.0735 99.1578C50.6393 98.6589 49.2543 98.582 48.7007 99.0319C48.6513 99.0706 48.5967 99.1021 48.5264 99.1429C48.4823 99.1685 48.4315 99.1979 48.3723 99.2347L48.2436 98.8967L48.076 98.9713V106.439ZM43.7669 83.3067C43.9063 83.7446 43.9135 84.2146 43.7876 84.6566C43.7028 84.6566 43.6234 84.6627 43.5462 84.6687C43.4727 84.6743 43.401 84.6799 43.3282 84.6799H37.974C37.9327 84.6811 37.8914 84.6734 37.8532 84.6571C37.8149 84.641 37.7804 84.617 37.7522 84.5862C37.7237 84.5556 37.7019 84.5193 37.6883 84.4796C37.6748 84.44 37.6695 84.3978 37.6731 84.3559V84.2626C37.6731 84.1761 37.6725 84.0973 37.672 84.0255C37.6692 83.6548 37.6679 83.4732 37.7565 83.3851C37.8417 83.3007 38.0099 83.3023 38.339 83.3053C38.4084 83.306 38.4847 83.3067 38.569 83.3067H43.7669ZM44.7224 106.649H45.6412V98.8268C45.6442 98.7922 45.6396 98.7577 45.6277 98.7253C45.6157 98.6929 45.5969 98.6635 45.5725 98.6395C45.5482 98.6153 45.5188 98.5971 45.4866 98.5859C45.4542 98.5747 45.42 98.571 45.3863 98.575H45.0256C44.9804 98.5726 44.9351 98.5799 44.8929 98.5964C44.8506 98.613 44.8122 98.6384 44.7801 98.6708C44.7482 98.7034 44.7231 98.7424 44.7068 98.7852C44.6905 98.8281 44.6834 98.8741 44.6857 98.92V106.136C44.6871 106.241 44.6967 106.347 44.7068 106.461C44.7121 106.521 44.7176 106.583 44.7224 106.649ZM91.1825 102.699C91.1825 102.256 91.1825 102.245 91.5202 102.233H93.948C94.0374 102.222 94.1281 102.237 94.2099 102.275C94.2498 102.301 94.2838 102.335 94.31 102.375C94.336 102.415 94.3537 102.461 94.3615 102.508C94.3615 102.58 94.2466 102.655 94.1662 102.706C94.1102 102.726 94.0502 102.732 93.9917 102.722H91.4283C91.3458 102.721 91.2638 102.713 91.1825 102.699ZM33.874 102.242C33.5019 102.245 33.4973 102.268 33.5593 102.734L36.4098 102.722C36.4199 102.722 36.4312 102.724 36.4425 102.726C36.4647 102.73 36.4863 102.733 36.4971 102.722C36.5134 102.707 36.5318 102.691 36.5504 102.675C36.6138 102.621 36.6809 102.563 36.6809 102.506C36.6581 102.41 36.5996 102.326 36.5178 102.273C36.4493 102.241 36.3738 102.231 36.2996 102.242H33.874Z" fill="#FFE9CD"/>
<path fill-rule="evenodd" clip-rule="evenodd" d="M94.4451 0C94.4987 0.263696 94.534 0.530751 94.5513 0.799302V61.7757C94.5513 61.9244 94.5427 62.0657 94.5335 62.217L94.5294 62.2851C94.5277 62.3136 94.5261 62.3426 94.5245 62.3722C94.5224 62.4079 94.5206 62.4445 94.519 62.4823C94.4511 62.4858 94.3888 62.4892 94.3304 62.4927C94.1896 62.5008 94.0698 62.5078 93.9442 62.5078H33.0314C32.7244 62.4939 32.6806 62.4452 32.6621 62.1255V0.785402C32.6621 0.493482 32.6621 0.215464 32.8929 0.00231682L94.4451 0ZM92.4391 2.27975H35.7068C35.5806 2.27975 35.4721 2.27659 35.3788 2.27387C35.1302 2.26662 34.9903 2.26254 34.9116 2.33019C34.8105 2.41714 34.8107 2.62262 34.8112 3.09226V59.9268C34.822 60.0253 34.8398 60.1228 34.8643 60.2188C35.2752 60.3369 91.9706 60.3415 92.4345 60.2188L92.4391 2.27975ZM87.7163 33.068L42.7288 7.18216C42.82 7.13395 42.916 7.09514 43.0151 7.06632C43.1136 7.05705 43.214 7.06013 43.3147 7.06322C43.3648 7.06477 43.4151 7.06632 43.4652 7.06632H51.5213C52.5924 7.06632 52.5924 7.06632 53.488 7.59924L53.4996 7.60614C54.2849 8.06739 55.0746 8.523 55.8643 8.97848L55.8666 8.97983L55.8675 8.98038C56.2073 9.17629 56.5468 9.37218 56.8859 9.56848C57.2754 9.79435 57.665 10.0212 58.0544 10.2481C58.7038 10.6262 59.3529 11.0043 60.0022 11.3779C60.4784 11.652 60.9546 11.9182 61.4295 12.1836C61.9899 12.497 62.5485 12.8093 63.1023 13.1318C63.8502 13.5557 64.5958 13.989 65.3391 14.4222C66.7396 15.2331 68.1391 16.044 69.538 16.8549C70.9369 17.6658 72.3403 18.4735 73.7484 19.2783C73.835 19.3288 73.9269 19.3686 74.0331 19.4145C74.0825 19.4359 74.1351 19.4587 74.1916 19.4845C74.2207 19.3665 74.2408 19.2464 74.2517 19.1254V14.3991C74.2611 14.2941 74.2364 14.189 74.1817 14.0992C74.1268 14.0095 74.0444 13.9399 73.947 13.9009C72.5998 13.1491 71.2626 12.3795 69.926 11.6103L69.9251 11.6098L69.5865 11.415C68.3661 10.7122 67.1482 10.0064 65.9324 9.29742L62.8669 7.51347L62.2898 7.18216C62.3613 7.13531 62.4389 7.09866 62.5206 7.07327C62.6704 7.06514 62.8207 7.06514 62.9707 7.07327H71.1169C71.6333 7.07327 71.8861 7.07327 72.1201 7.13921C72.3445 7.20236 72.5518 7.32597 72.9578 7.56798L72.9636 7.57139C73.7212 8.01262 74.4799 8.44897 75.2389 8.88551C75.6477 9.12057 76.0566 9.35568 76.4654 9.59165L80.6619 12.022L83.1804 13.4561C83.2669 13.5122 83.3687 13.5405 83.4717 13.5371C83.5749 13.5338 83.6746 13.4991 83.7574 13.4376C84.9601 12.6475 86.1697 11.8691 87.3792 11.0906C87.5328 11.0051 87.6906 10.9277 87.8525 10.859C87.8573 10.9253 87.8633 10.9873 87.8691 11.0465C87.8797 11.1548 87.8894 11.2536 87.8894 11.3524V21.7271C87.7296 21.8305 87.635 21.7726 87.5254 21.7054C87.5145 21.6988 87.5034 21.6921 87.4924 21.6854C86.292 20.9749 85.0854 20.2737 83.8729 19.5818C83.0245 19.0944 82.1723 18.6132 81.3198 18.132L81.3189 18.1314L81.3177 18.1308L81.3166 18.1302C80.8898 17.8892 80.4627 17.648 80.0364 17.4063C79.8898 17.3228 79.7428 17.2399 79.5959 17.1569C79.1234 16.8901 78.6511 16.6233 78.1897 16.3405C78.159 16.3131 78.1223 16.2936 78.0824 16.2839C78.0424 16.2742 78.0009 16.2745 77.9609 16.2848C77.9212 16.2951 77.8848 16.3151 77.8545 16.343C77.8243 16.3709 77.8014 16.4059 77.788 16.4448C77.3679 17.18 76.9485 17.916 76.53 18.6527L76.3661 18.9402L76.3654 18.9414L76.3645 18.9431C76.1697 19.2843 75.9751 19.6258 75.7844 19.9687C75.7299 20.0845 75.6828 20.2037 75.6436 20.3255L75.7131 20.3696L75.7671 20.4042L75.8428 20.4526C76.1304 20.6364 76.4017 20.8096 76.6893 20.9719C77.4072 21.3857 78.1285 21.7951 78.8501 22.2048L78.8534 22.2066C79.177 22.3903 79.5006 22.574 79.824 22.7581C80.0325 22.8768 80.2421 22.996 80.4521 23.1156L80.4556 23.1175L80.4593 23.1196L80.4625 23.1214L80.465 23.1229C81.3048 23.6005 82.1554 24.0845 82.9957 24.5699C84.2267 25.2834 85.458 26.001 86.689 26.7222C86.7851 26.7783 86.8799 26.8376 86.9748 26.8966C87.1576 27.0109 87.3409 27.1249 87.5339 27.218C87.6022 27.2472 87.6606 27.2958 87.7017 27.3579C87.7428 27.4202 87.7647 27.4932 87.7647 27.5678C87.7763 27.6883 87.7763 27.8111 87.7763 27.9316V32.4285C87.7747 32.5513 87.7604 32.6741 87.7435 32.8182C87.7347 32.8944 87.725 32.9767 87.7163 33.068ZM39.4881 43.3488C39.4902 43.3831 39.4925 43.419 39.4948 43.4566C39.5943 43.4285 39.6915 43.3929 39.7857 43.35C39.9073 43.2775 40.0276 43.2017 40.1479 43.126C40.3039 43.028 40.4602 42.9295 40.619 42.838C40.9983 42.6197 41.3789 42.4038 41.7593 42.1881L41.7605 42.1874L41.7614 42.187C42.2969 41.8832 42.8322 41.5795 43.3636 41.2695C43.9209 40.9442 44.4758 40.6141 45.0307 40.2841L45.0319 40.2835C45.587 39.9533 46.142 39.6234 46.6992 39.2979C47.3347 38.9281 47.9715 38.5623 48.6082 38.1965L48.6091 38.196C49.3482 37.7716 50.0878 37.3467 50.8242 36.9162C51.6123 36.4531 52.3974 35.9897 53.1827 35.5266C53.9682 35.063 54.7539 34.5996 55.5425 34.136C56.4603 33.5976 57.3811 33.064 58.3021 32.5302L58.3074 32.5272C58.7954 32.2443 59.2836 31.9614 59.7714 31.6779C60.9533 30.9937 62.1328 30.3079 63.3101 29.6205C63.3689 29.577 63.44 29.5533 63.5132 29.5533C63.5864 29.5533 63.6575 29.577 63.7163 29.6205C64.3077 29.9704 64.9028 30.3142 65.4975 30.6575L65.4989 30.6582C65.8645 30.8695 66.2301 31.0808 66.5949 31.2933C67.1212 31.5982 67.6449 31.9056 68.1687 32.2128L68.1698 32.2135C68.6444 32.492 69.1197 32.7707 69.5957 33.0471C70.1728 33.383 70.7499 33.7143 71.3267 34.0459C71.6732 34.2447 72.0195 34.4434 72.3657 34.6434L75.7544 36.6057L78.7945 38.3758C79.1687 38.5945 79.5424 38.8146 79.9163 39.0347L79.92 39.0368L79.9212 39.0375L79.9221 39.0379C80.7624 39.5326 81.6026 40.027 82.4463 40.5073C84.0545 41.434 85.6658 42.3607 87.28 43.2874C87.3966 43.3539 87.5184 43.4116 87.65 43.4739C87.7112 43.5029 87.7751 43.5333 87.8409 43.5655C87.8658 43.4712 87.8836 43.3752 87.894 43.2782V39.0523C87.8998 38.9629 87.8781 38.8739 87.8319 38.7972C87.7855 38.7205 87.717 38.6601 87.6355 38.6237C87.2373 38.3952 86.8379 38.1603 86.4381 37.9252C86.0314 37.6861 85.6235 37.4463 85.2163 37.2127C84.8149 36.9799 84.4114 36.7475 84.0074 36.5147C83.4103 36.1706 82.8115 35.8257 82.2155 35.4774C81.5329 35.0796 80.8582 34.6835 80.1813 34.2859C79.3956 33.8244 78.6068 33.3613 77.7996 32.8919C77.1133 32.4929 76.4252 32.097 75.7368 31.701C74.9183 31.23 74.0995 30.759 73.2845 30.2831C72.4955 29.82 71.7088 29.3569 70.9219 28.8937C70.1345 28.4301 69.3469 27.9665 68.557 27.503C67.7876 27.0549 67.0152 26.611 66.2431 26.1668L66.2414 26.1659C65.4688 25.7218 64.696 25.2776 63.9264 24.8293C63.8138 24.7534 63.6817 24.7112 63.546 24.7079C63.41 24.7047 63.2761 24.7404 63.16 24.8108C61.7104 25.6588 60.2624 26.5083 58.8157 27.3593C58.186 27.73 57.5579 28.1007 56.9298 28.4712C55.9873 29.0274 55.0448 29.5835 54.0975 30.1395C53.3812 30.5528 52.6617 30.9634 51.9417 31.3741C50.9098 31.9628 49.8771 32.5522 48.8506 33.1514C47.8698 33.7192 46.8959 34.298 45.921 34.8774L45.9201 34.8779L45.9192 34.8785L45.9171 34.8797L45.9153 34.8809L45.9139 34.8816C45.3241 35.2321 44.7339 35.5829 44.1415 35.9315C42.7104 36.7725 41.2769 37.6112 39.8272 38.4198C39.7067 38.4756 39.607 38.5688 39.5431 38.6855C39.4791 38.8023 39.4542 38.9365 39.4717 39.0685V42.977C39.4717 43.0921 39.4791 43.2091 39.4881 43.3488ZM70.2767 55.5295H66.2094C66.1664 54.9079 66.1717 54.2942 66.1768 53.6828V53.6798C66.1791 53.4034 66.1814 53.127 66.1794 52.8513C66.1747 52.2582 66.1763 51.662 66.1777 51.0717C66.1787 50.7789 66.1794 50.4874 66.1794 50.1985C65.8169 50.0595 62.426 50.0108 61.438 50.1151C61.3166 50.3192 61.2686 50.5588 61.3018 50.7939V54.8391C61.3018 55.5573 61.3018 55.5573 60.5701 55.5573H57.6708C57.1168 55.5573 57.0937 55.5295 57.0937 54.9596V39.1496C57.0766 38.9802 57.1117 38.8095 57.1941 38.6608C57.2767 38.512 57.4028 38.3925 57.5554 38.3179C58.3116 37.9138 59.0639 37.5021 59.8143 37.0916L60.0161 36.9811C60.1825 36.8898 60.3471 36.7941 60.5112 36.6986L60.5126 36.6979C60.6435 36.6217 60.7753 36.5453 60.9071 36.4714C60.9556 36.4447 61.007 36.4229 61.0599 36.4005C61.0901 36.3875 61.1208 36.3745 61.1518 36.3602C61.3228 36.5223 61.3138 36.7125 61.3055 36.8951C61.3037 36.9343 61.3018 36.9729 61.3018 37.0112V43.4612C61.3018 43.8736 61.3018 44.081 61.405 44.1852C61.5096 44.2906 61.7196 44.2906 62.142 44.2906H65.5815C65.6999 44.2906 65.8181 44.2834 65.9536 44.2751C66.0215 44.2712 66.0939 44.2668 66.1724 44.2628V36.293C67.0113 36.7213 67.8017 37.1662 68.5842 37.6064C69.1472 37.9233 69.707 38.2382 70.2767 38.5426V55.5295ZM42.0986 12.0197L42.0952 12.0175C41.2559 11.5017 40.4101 10.9819 39.5525 10.4558C39.4325 10.9516 39.444 32.4911 39.571 32.8849C44.1755 30.2222 48.7513 27.5639 53.2988 24.9104C53.3865 23.3443 53.3472 19.6281 53.2318 19.2528C53.1642 19.2877 53.0959 19.3185 53.028 19.349C52.9338 19.3914 52.8412 19.4333 52.754 19.4844C52.2081 19.8007 51.6633 20.1193 51.1183 20.4379C50.5738 20.7564 50.029 21.075 49.4831 21.3912C48.5696 21.9292 47.6544 22.4565 46.7389 22.9839L46.737 22.9849C46.2419 23.2701 45.7468 23.5553 45.2519 23.8424C44.7029 24.1568 44.154 24.476 43.6044 24.7958C42.959 25.1711 42.3129 25.5469 41.6647 25.9159C41.5273 25.9683 41.3821 25.9973 41.2353 26.0017C41.218 25.9651 41.2037 25.9393 41.1926 25.9196C41.1772 25.8921 41.1684 25.8765 41.1684 25.8603C41.1684 25.3451 41.1665 24.83 41.1647 24.3148C41.1612 23.2852 41.1575 22.2549 41.1684 21.2267C41.1795 21.142 41.2076 21.0603 41.2508 20.9867C41.294 20.9131 41.3514 20.8489 41.42 20.7981C41.8147 20.5131 42.2325 20.2559 42.6503 20.0034C43.4818 19.5011 44.3142 19 45.1466 18.499L45.1475 18.4984L45.1484 18.4978L45.1496 18.4971L45.1505 18.4965L45.1514 18.496C46.3021 17.8032 47.4529 17.1105 48.6013 16.4147C48.6694 16.3701 48.7146 16.2983 48.7626 16.2223C48.7843 16.1877 48.8067 16.1522 48.8321 16.1181C48.0879 15.6635 47.3534 15.2205 46.6267 14.7823C45.798 14.2826 44.9797 13.7891 44.1692 13.2916C43.4917 12.8757 42.8128 12.4585 42.1296 12.0387L42.1229 12.0346L42.101 12.021L42.0986 12.0197ZM39.5024 55.454L39.5006 55.4375C39.4983 55.4162 39.496 55.3958 39.4937 55.3761C39.4814 55.2672 39.4717 55.1818 39.4717 55.0963V50.2309C39.4574 50.1411 39.4637 50.0491 39.4902 49.9622C39.544 49.8681 39.6243 49.7924 39.721 49.7444C39.8242 49.7217 39.9304 49.7178 40.035 49.7328H52.8856C52.9774 49.73 53.0668 49.7632 53.1351 49.8248C53.2034 49.8864 53.2454 49.9722 53.2526 50.0641C53.2671 50.1839 53.2727 50.3049 53.2688 50.4256V54.8785C53.2734 54.9688 53.2734 55.0592 53.2688 55.1496C53.2411 55.4276 53.1833 55.4832 52.904 55.5017H39.5087V55.5133C39.5066 55.4927 39.5045 55.473 39.5024 55.454ZM74.284 49.7745V55.4994H87.4831C87.5161 55.5045 87.5501 55.5022 87.5822 55.4929C87.6142 55.4834 87.644 55.4672 87.6692 55.4452C87.6946 55.4232 87.7146 55.3958 87.7283 55.3652C87.7421 55.3344 87.749 55.3013 87.7486 55.2677V50.3167C87.7486 49.7838 87.7024 49.7398 87.1877 49.7398H74.7456C74.6482 49.7398 74.5497 49.7495 74.4421 49.7599C74.3915 49.765 74.3391 49.7701 74.284 49.7745ZM53.0795 41.2116C53.1037 41.3402 53.1199 41.4701 53.1279 41.6008V44.7725C53.1279 45.1733 53.0818 45.222 52.687 45.2243H47.3132C47.2557 45.2204 47.1987 45.2125 47.1424 45.2011C47.0639 45.0575 47.1008 44.9695 47.2301 44.8999C47.5634 44.6926 47.8951 44.4818 48.2271 44.2705C48.433 44.1396 48.6394 44.0084 48.846 43.8782L52.6709 41.4433C52.7443 41.3974 52.82 41.3557 52.9029 41.3103C52.958 41.2799 53.0167 41.2477 53.0795 41.2116ZM74.2886 41.1861V45.1478C74.7364 45.2614 79.9487 45.2544 80.3688 45.127C80.0839 44.8383 79.7663 44.6469 79.4457 44.454C79.2647 44.3451 79.0828 44.2355 78.9053 44.1076C78.5937 43.8829 78.2562 43.6834 77.9231 43.4867C77.7308 43.3729 77.5399 43.2601 77.3564 43.1438C77.0466 42.9476 76.7384 42.7485 76.4305 42.5495C76.2405 42.427 76.0508 42.3042 75.8606 42.1823L74.2886 41.1861Z" fill="#FFE9CD"/>
</svg>
