<svg width="12" height="12" viewBox="0 0 12 12" fill="none" xmlns="http://www.w3.org/2000/svg">
<path d="M11.2481 12C4.8494 12.0091 -0.00683822 7.09462 7.22806e-06 0.751882C7.22806e-06 0.337669 0.335794 0 0.750007 0H2.72953C3.1012 0 3.41695 0.273097 3.47153 0.640747C3.60233 1.5219 3.85888 2.37973 4.23336 3.18803L4.31043 3.35438C4.4176 3.58568 4.34496 3.86051 4.13751 4.00865C3.52447 4.44644 3.29019 5.32766 3.76777 6.01527C4.36708 6.87813 5.12254 7.63343 5.9852 8.23246C6.67276 8.70991 7.55385 8.47566 7.99163 7.86273C8.13988 7.65517 8.41486 7.5825 8.6463 7.68971L8.81188 7.76642C9.62024 8.14087 10.4781 8.39743 11.3594 8.52821C11.727 8.58278 12 8.89851 12 9.2702V11.25C12 11.6642 11.6634 12 11.2492 12L11.2481 12Z" fill="#FFE9CD"/>
</svg>
