<svg width="50" height="50" viewBox="0 0 50 50" fill="none" xmlns="http://www.w3.org/2000/svg">
<path d="M47.2812 0.78125H2.71875C1.64707 0.78125 0.78125 1.64707 0.78125 2.71875V47.2812C0.78125 48.3529 1.64707 49.2188 2.71875 49.2188H47.2812C48.3529 49.2188 49.2188 48.3529 49.2188 47.2812V2.71875C49.2188 1.64707 48.3529 0.78125 47.2812 0.78125ZM32.8529 25.5328L20.7799 35.0266C20.3318 35.3777 19.6719 35.0629 19.6719 34.4937V15.5123C19.6719 14.9432 20.3318 14.6223 20.7799 14.9795L32.8529 24.4672C32.9335 24.5306 32.9987 24.6116 33.0435 24.7039C33.0883 24.7962 33.1116 24.8974 33.1116 25C33.1116 25.1026 33.0883 25.2038 33.0435 25.2961C32.9987 25.3884 32.9335 25.4694 32.8529 25.5328Z" fill="white"/>
</svg>
