<svg width="42" height="42" viewBox="0 0 42 42" fill="none" xmlns="http://www.w3.org/2000/svg">
<circle cx="21" cy="21" r="21" fill="#FFF7EE"/>
<path d="M29.7719 25.125C29.7206 25.0844 26 22.4025 24.9787 22.595C24.4912 22.6812 24.2125 23.0138 23.6531 23.6794C23.5631 23.7869 23.3469 24.0444 23.1788 24.2275C22.8252 24.1122 22.4804 23.9718 22.1469 23.8075C20.4253 22.9694 19.0344 21.5784 18.1962 19.8569C18.0318 19.5234 17.8914 19.1785 17.7762 18.825C17.96 18.6563 18.2175 18.44 18.3275 18.3475C18.99 17.7912 19.3231 17.5125 19.4094 17.0237C19.5862 16.0112 16.9062 12.265 16.8781 12.2313C16.7565 12.0575 16.5978 11.913 16.4135 11.8082C16.2292 11.7033 16.0239 11.6408 15.8125 11.625C14.7262 11.625 11.625 15.6481 11.625 16.3256C11.625 16.365 11.6819 20.3675 16.6175 25.3881C21.6331 30.3181 25.635 30.375 25.6744 30.375C26.3525 30.375 30.375 27.2737 30.375 26.1875C30.3594 25.9768 30.2972 25.7722 30.1929 25.5884C30.0886 25.4047 29.9448 25.2464 29.7719 25.125Z" fill="#181A1F"/>
</svg>
