<svg width="42" height="42" viewBox="0 0 42 42" fill="none" xmlns="http://www.w3.org/2000/svg">
<g clip-path="url(#clip0_27_302)">
<path d="M20.9998 41.9995C32.5976 41.9995 41.9995 32.5976 41.9995 20.9998C41.9995 9.40191 32.5976 0 20.9998 0C9.40191 0 0 9.40191 0 20.9998C0 32.5976 9.40191 41.9995 20.9998 41.9995Z" fill="#41B4E6"/>
<path d="M42.0001 21C42.0001 20.4883 41.9809 19.9813 41.9449 19.4787L33.2415 10.7754L8.75879 20.4058L18.126 29.7731L18.2489 30.2154L18.408 30.055L18.4086 30.0557L18.2489 30.2154L28.6108 40.5774C36.4465 37.5291 42.0001 29.9135 42.0001 21Z" fill="#0091C8"/>
<path d="M18.9608 24.0595L28.4511 31.2247L33.2416 10.7754L8.75879 20.4058L16.2086 22.8734L29.8047 13.7535L18.9608 24.0595Z" fill="white"/>
<path d="M16.208 22.8738L18.2484 30.2159L18.9602 24.06L29.8041 13.7539L16.208 22.8738Z" fill="#D2D2D7"/>
<path d="M22.0452 26.3883L18.249 30.2155L18.9608 24.0596L22.0452 26.3883Z" fill="#B9B9BE"/>
</g>
<defs>
<clipPath id="clip0_27_302">
<rect width="42" height="42" fill="white"/>
</clipPath>
</defs>
</svg>
