<svg width="442" height="264" viewBox="0 0 442 264" fill="none" xmlns="http://www.w3.org/2000/svg">
<path opacity="0.25" d="M1 263L0.566773 262.75L0.134834 263.5H1V263ZM151.966 1.00001L151.966 0.500006L151.677 0.500006L151.532 0.750378L151.966 1.00001ZM124.082 263V263.5H124.374L124.517 263.246L124.082 263ZM317.918 263L317.483 263.246L317.626 263.5H317.918V263ZM441 263V263.5H441.865L441.433 262.75L441 263ZM290.034 1L290.468 0.750372L290.323 0.5L290.034 0.5L290.034 1ZM1.43323 263.25L152.399 1.24963L151.532 0.750378L0.566773 262.75L1.43323 263.25ZM220.543 90.9716L123.646 262.754L124.517 263.246L221.414 91.4629L220.543 90.9716ZM124.082 262.5H1V263.5H124.082V262.5ZM220.586 91.4629L317.483 263.246L318.354 262.754L221.457 90.9716L220.586 91.4629ZM317.918 263.5H441V262.5H317.918V263.5ZM441.433 262.75L290.468 0.750372L289.601 1.24963L440.567 263.25L441.433 262.75ZM151.966 1.50001L290.034 1.5L290.034 0.5L151.966 0.500006L151.966 1.50001Z" fill="#FFE9CD"/>
</svg>
