<svg width="14" height="10" viewBox="0 0 14 10" fill="none" xmlns="http://www.w3.org/2000/svg">
<path d="M11.0725 5.32482C10.8568 5.01348 10.9185 4.87496 11.0725 4.59666C11.0753 4.59348 12.8561 1.78123 13.0396 0.827502L13.0407 0.826866C13.1319 0.479305 13.0407 0.223877 12.5998 0.223877H11.1409C10.7695 0.223877 10.5983 0.443088 10.5065 0.68835C10.5065 0.68835 9.76373 2.72034 8.71291 4.03751C8.37376 4.41812 8.21697 4.54011 8.03182 4.54011C7.94064 4.54011 7.79886 4.41812 7.79886 4.07055V0.826866C7.79886 0.410047 7.69489 0.223877 7.38743 0.223877H5.09342C4.86046 0.223877 4.72202 0.418308 4.72202 0.599395C4.72202 0.99461 5.24743 1.08547 5.30192 2.19741V4.61C5.30192 5.13865 5.21796 5.23587 5.0317 5.23587C4.53576 5.23587 3.33204 3.19562 2.61871 0.860542C2.47471 0.407506 2.33404 0.224512 1.95986 0.224512H0.50039C0.0839544 0.224512 0 0.443723 0 0.688986C0 1.12232 0.495942 3.27695 2.30624 6.12351C3.51274 8.06655 5.21185 9.1194 6.7575 9.1194C7.68655 9.1194 7.79998 8.88557 7.79998 8.48337C7.79998 6.62675 7.71602 6.45138 8.18139 6.45138C8.39711 6.45138 8.76851 6.57337 9.63585 7.51058C10.6272 8.62189 10.7901 9.1194 11.345 9.1194H12.8039C13.2198 9.1194 13.4305 8.88557 13.3093 8.42428C13.0318 7.45403 11.157 5.45826 11.0725 5.32482Z" fill="white"/>
</svg>
