<svg width="42" height="42" viewBox="0 0 42 42" fill="none" xmlns="http://www.w3.org/2000/svg">
<path d="M21 42C32.598 42 42 32.598 42 21C42 9.40202 32.598 0 21 0C9.40202 0 0 9.40202 0 21C0 32.598 9.40202 42 21 42Z" fill="#29A71A"/>
<path d="M31.2762 10.86C29.0914 8.65334 26.1898 7.30006 23.0951 7.04427C20.0003 6.78849 16.916 7.64703 14.3985 9.46505C11.8809 11.2831 10.0959 13.9409 9.36545 16.9591C8.63496 19.9773 9.00706 23.1571 10.4146 25.9251L9.03293 32.6332C9.01859 32.7 9.01818 32.769 9.03173 32.8359C9.04528 32.9029 9.0725 32.9663 9.11167 33.0222C9.16907 33.1071 9.25099 33.1724 9.34651 33.2095C9.44202 33.2466 9.54658 33.2537 9.64622 33.2298L16.2207 31.6715C18.9809 33.0435 22.1383 33.3916 25.1311 32.6541C28.124 31.9165 30.7581 30.1411 32.5648 27.6437C34.3714 25.1463 35.2335 22.089 34.9975 19.0156C34.7616 15.9423 33.443 13.0524 31.2762 10.86ZM29.2263 27.2209C27.7146 28.7284 25.768 29.7235 23.6608 30.066C21.5535 30.4085 19.392 30.0811 17.4807 29.13L16.5643 28.6766L12.5337 29.6312L12.5457 29.5811L13.3809 25.5242L12.9322 24.6389C11.9556 22.7209 11.6111 20.543 11.9481 18.4173C12.285 16.2915 13.2861 14.3269 14.8079 12.8049C16.7201 10.8933 19.3133 9.81941 22.0171 9.81941C24.721 9.81941 27.3141 10.8933 29.2263 12.8049C29.2426 12.8236 29.2602 12.8411 29.2788 12.8574C31.1673 14.7739 32.2216 17.3594 32.2118 20.05C32.2019 22.7406 31.1288 25.3183 29.2263 27.2209Z" fill="white"/>
<path d="M28.8686 24.2456C28.3746 25.0235 27.5943 25.9757 26.6135 26.212C24.8953 26.6272 22.2584 26.2263 18.9771 23.167L18.9366 23.1312C16.0514 20.4561 15.3021 18.2296 15.4835 16.4637C15.5837 15.4614 16.4189 14.5546 17.1229 13.9628C17.2342 13.8678 17.3662 13.8002 17.5083 13.7653C17.6504 13.7304 17.7987 13.7293 17.9413 13.762C18.084 13.7947 18.2169 13.8603 18.3297 13.9536C18.4424 14.0469 18.5317 14.1653 18.5905 14.2992L19.6525 16.6856C19.7215 16.8403 19.7471 17.0109 19.7265 17.1791C19.7059 17.3473 19.6399 17.5066 19.5355 17.6401L18.9986 18.337C18.8834 18.4808 18.8139 18.6559 18.799 18.8396C18.7841 19.0234 18.8245 19.2073 18.9151 19.3679C19.2158 19.8953 19.9364 20.6708 20.7359 21.3891C21.6332 22.2005 22.6283 22.9426 23.2583 23.1956C23.4268 23.2645 23.6122 23.2813 23.7904 23.2438C23.9686 23.2064 24.1315 23.1165 24.2582 22.9856L24.881 22.358C25.0012 22.2395 25.1506 22.155 25.3141 22.113C25.4776 22.0711 25.6493 22.0733 25.8117 22.1193L28.3341 22.8353C28.4732 22.8779 28.6007 22.9519 28.7069 23.0514C28.8131 23.1509 28.8951 23.2734 28.9467 23.4095C28.9983 23.5456 29.0181 23.6917 29.0045 23.8366C28.991 23.9815 28.9445 24.1214 28.8686 24.2456Z" fill="white"/>
</svg>
